solid OpenSCAD_Model
  facet normal -1 0 0
    outer loop
      vertex -7.5 -10.1679 0
      vertex -7.5 -10.1679 8
      vertex -7.5 -4.125 0
    endloop
  endfacet
  facet normal -1 0 0
    outer loop
      vertex -7.5 -4.125 0
      vertex -7.5 -10.1679 8
      vertex -7.5 -7.44923 8
    endloop
  endfacet
  facet normal -1 0 0
    outer loop
      vertex -7.5 -4.125 0
      vertex -7.5 -7.44923 8
      vertex -7.5 -6.80173 8.79662
    endloop
  endfacet
  facet normal -1 0 0
    outer loop
      vertex -7.5 -4.125 0
      vertex -7.5 -6.80173 8.79662
      vertex -7.5 -6.03804 9.56559
    endloop
  endfacet
  facet normal -1 0 0
    outer loop
      vertex -7.5 -4.125 0
      vertex -7.5 -6.03804 9.56559
      vertex -7.5 -5.21435 10.2395
    endloop
  endfacet
  facet normal -1 0 0
    outer loop
      vertex -7.5 -4.125 0
      vertex -7.5 -5.21435 10.2395
      vertex -7.5 -4.33884 10.8116
    endloop
  endfacet
  facet normal -1 0 0
    outer loop
      vertex -7.5 -4.125 0
      vertex -7.5 -4.33884 10.8116
      vertex -7.5 -3.4202 11.2763
    endloop
  endfacet
  facet normal -1 0 0
    outer loop
      vertex -7.5 -4.00513 0.987177
      vertex -7.5 -3.4202 11.2763
      vertex -7.5 -2.46757 11.6289
    endloop
  endfacet
  facet normal -1 0 0
    outer loop
      vertex -7.5 -3.65251 1.91698
      vertex -7.5 -1.49042 11.866
      vertex -7.5 -0.498459 11.9851
    endloop
  endfacet
  facet normal -1 0 0
    outer loop
      vertex -7.5 -3.08761 2.73538
      vertex -7.5 -0.498459 11.9851
      vertex -7.5 0.498459 11.9851
    endloop
  endfacet
  facet normal -1 0 0
    outer loop
      vertex -7.5 -2.91682 2.91682
      vertex -7.5 0.498459 11.9851
      vertex -7.5 1.49042 11.866
    endloop
  endfacet
  facet normal -1 0 0
    outer loop
      vertex -7.5 -1.70863 4.125
      vertex -7.5 2.46757 11.6289
      vertex -7.5 3.4202 11.2763
    endloop
  endfacet
  facet normal -1 0 0
    outer loop
      vertex -7.5 -2.91682 2.91682
      vertex -7.5 2.46757 11.6289
      vertex -7.5 -1.70863 4.125
    endloop
  endfacet
  facet normal -1 0 0
    outer loop
      vertex -7.5 0.814461 4.125
      vertex -7.5 6.03804 9.56559
      vertex -7.5 6.80173 8.79662
    endloop
  endfacet
  facet normal -1 0 0
    outer loop
      vertex -7.5 1.70863 4.125
      vertex -7.5 6.80173 8.79662
      vertex -7.5 7.44923 8
    endloop
  endfacet
  facet normal -1 0 0
    outer loop
      vertex -7.5 4.125 0
      vertex -7.5 10.1679 8
      vertex -7.5 10.1679 0
    endloop
  endfacet
  facet normal -1 0 0
    outer loop
      vertex -7.5 4.00514 0.987177
      vertex -7.5 10.1679 8
      vertex -7.5 4.125 0
    endloop
  endfacet
  facet normal -1 0 0
    outer loop
      vertex -7.5 3.65251 1.91698
      vertex -7.5 10.1679 8
      vertex -7.5 4.00514 0.987177
    endloop
  endfacet
  facet normal -1 0 0
    outer loop
      vertex -7.5 3.08761 2.73538
      vertex -7.5 10.1679 8
      vertex -7.5 3.65251 1.91698
    endloop
  endfacet
  facet normal -1 0 0
    outer loop
      vertex -7.5 2.91682 2.91682
      vertex -7.5 10.1679 8
      vertex -7.5 3.08761 2.73538
    endloop
  endfacet
  facet normal -1 0 0
    outer loop
      vertex -7.5 -1.70863 4.125
      vertex -7.5 5.21435 10.2395
      vertex -7.5 6.03804 9.56559
    endloop
  endfacet
  facet normal -1 0 0
    outer loop
      vertex -7.5 -1.70863 4.125
      vertex -7.5 6.03804 9.56559
      vertex -7.5 0.814461 4.125
    endloop
  endfacet
  facet normal -1 0 0
    outer loop
      vertex -7.5 2.88281 2.91682
      vertex -7.5 2.91682 2.91682
      vertex -7.5 3.08761 2.73538
    endloop
  endfacet
  facet normal -1 0 0
    outer loop
      vertex -7.5 -1.70863 4.125
      vertex -7.5 4.33884 10.8116
      vertex -7.5 5.21435 10.2395
    endloop
  endfacet
  facet normal -1 0 0
    outer loop
      vertex -7.5 0.814461 4.125
      vertex -7.5 6.80173 8.79662
      vertex -7.5 1.70863 4.125
    endloop
  endfacet
  facet normal -1 0 0
    outer loop
      vertex -7.5 -1.70863 4.125
      vertex -7.5 3.4202 11.2763
      vertex -7.5 4.33884 10.8116
    endloop
  endfacet
  facet normal -1 0 0
    outer loop
      vertex -7.5 -2.91682 2.91682
      vertex -7.5 1.49042 11.866
      vertex -7.5 2.46757 11.6289
    endloop
  endfacet
  facet normal -1 0 0
    outer loop
      vertex -7.5 -3.08761 2.73538
      vertex -7.5 0.498459 11.9851
      vertex -7.5 -2.91682 2.91682
    endloop
  endfacet
  facet normal -1 0 0
    outer loop
      vertex -7.5 -3.08761 2.73538
      vertex -7.5 -2.91682 2.91682
      vertex -7.5 -2.88281 2.91682
    endloop
  endfacet
  facet normal -1 0 0
    outer loop
      vertex -7.5 -4.00513 0.987177
      vertex -7.5 -1.49042 11.866
      vertex -7.5 -3.65251 1.91698
    endloop
  endfacet
  facet normal -1 0 0
    outer loop
      vertex -7.5 -3.65251 1.91698
      vertex -7.5 -0.498459 11.9851
      vertex -7.5 -3.08761 2.73538
    endloop
  endfacet
  facet normal -1 0 0
    outer loop
      vertex -7.5 -4.00513 0.987177
      vertex -7.5 -2.46757 11.6289
      vertex -7.5 -1.49042 11.866
    endloop
  endfacet
  facet normal -1 0 0
    outer loop
      vertex -7.5 -4.125 0
      vertex -7.5 -3.4202 11.2763
      vertex -7.5 -4.00513 0.987177
    endloop
  endfacet
  facet normal -1 0 0
    outer loop
      vertex -7.5 1.70863 4.125
      vertex -7.5 7.44923 8
      vertex -7.5 10.1679 8
    endloop
  endfacet
  facet normal -1 0 0
    outer loop
      vertex -7.5 1.70863 4.125
      vertex -7.5 10.1679 8
      vertex -7.5 2.91682 2.91682
    endloop
  endfacet
  facet normal -0.980785 -0.195091 0
    outer loop
      vertex -7.5 -10.1679 0
      vertex -7.34104 -10.967 0
      vertex -7.5 -10.1679 8
    endloop
  endfacet
  facet normal -0.980785 -0.195091 0
    outer loop
      vertex -7.5 -10.1679 8
      vertex -7.34104 -10.967 0
      vertex -7.34104 -10.967 8
    endloop
  endfacet
  facet normal 0 0 -1
    outer loop
      vertex -7.5 -10.1679 0
      vertex -7.5 -4.125 0
      vertex -7.34104 -10.967 0
    endloop
  endfacet
  facet normal 0 0 -1
    outer loop
      vertex -7.34104 -10.967 0
      vertex -7.5 -4.125 0
      vertex -4.125 -4.125 0
    endloop
  endfacet
  facet normal 0 0 -1
    outer loop
      vertex 0 -7.2 0
      vertex -4.125 -4.125 0
      vertex 7.5 -4.125 0
    endloop
  endfacet
  facet normal 0 0 -1
    outer loop
      vertex 1.8 -9 0
      vertex 7.5 -4.125 0
      vertex 7.5 -10.1679 0
    endloop
  endfacet
  facet normal 0 0 -1
    outer loop
      vertex 0 -10.8 0
      vertex 7.5 -10.1679 0
      vertex 7.34104 -10.967 0
    endloop
  endfacet
  facet normal 0 0 -1
    outer loop
      vertex -7.34104 -10.967 0
      vertex 7.34104 -10.967 0
      vertex 7.02148 -11.9084 0
    endloop
  endfacet
  facet normal 0 0 -1
    outer loop
      vertex -7.34104 -10.967 0
      vertex 7.02148 -11.9084 0
      vertex 6.58179 -12.8 0
    endloop
  endfacet
  facet normal 0 0 -1
    outer loop
      vertex -7.34104 -10.967 0
      vertex 6.58179 -12.8 0
      vertex 6.02948 -13.6266 0
    endloop
  endfacet
  facet normal 0 0 -1
    outer loop
      vertex -7.34104 -10.967 0
      vertex 6.02948 -13.6266 0
      vertex 5.37401 -14.374 0
    endloop
  endfacet
  facet normal 0 0 -1
    outer loop
      vertex -7.34104 -10.967 0
      vertex 5.37401 -14.374 0
      vertex 4.62659 -15.0295 0
    endloop
  endfacet
  facet normal 0 0 -1
    outer loop
      vertex -7.34104 -10.967 0
      vertex 4.62659 -15.0295 0
      vertex 3.8 -15.5818 0
    endloop
  endfacet
  facet normal 0 0 -1
    outer loop
      vertex -7.34104 -10.967 0
      vertex 3.8 -15.5818 0
      vertex 2.90839 -16.0215 0
    endloop
  endfacet
  facet normal 0 0 -1
    outer loop
      vertex -7.34104 -10.967 0
      vertex 2.90839 -16.0215 0
      vertex 1.96702 -16.341 0
    endloop
  endfacet
  facet normal 0 0 -1
    outer loop
      vertex -7.34104 -10.967 0
      vertex 1.96702 -16.341 0
      vertex 1.16786 -16.5 0
    endloop
  endfacet
  facet normal 0 0 -1
    outer loop
      vertex -7.34104 -10.967 0
      vertex 1.16786 -16.5 0
      vertex -1.16786 -16.5 0
    endloop
  endfacet
  facet normal 0 0 -1
    outer loop
      vertex -7.34104 -10.967 0
      vertex -1.16786 -16.5 0
      vertex -1.96703 -16.341 0
    endloop
  endfacet
  facet normal 0 0 -1
    outer loop
      vertex -7.34104 -10.967 0
      vertex -1.96703 -16.341 0
      vertex -2.90839 -16.0215 0
    endloop
  endfacet
  facet normal 0 0 -1
    outer loop
      vertex -7.34104 -10.967 0
      vertex -2.90839 -16.0215 0
      vertex -3.8 -15.5818 0
    endloop
  endfacet
  facet normal 0 0 -1
    outer loop
      vertex -7.34104 -10.967 0
      vertex -3.8 -15.5818 0
      vertex -4.62659 -15.0295 0
    endloop
  endfacet
  facet normal 0 0 -1
    outer loop
      vertex -7.34104 -10.967 0
      vertex -4.62659 -15.0295 0
      vertex -5.37401 -14.374 0
    endloop
  endfacet
  facet normal 0 0 -1
    outer loop
      vertex -7.34104 -10.967 0
      vertex -5.37401 -14.374 0
      vertex -6.02949 -13.6266 0
    endloop
  endfacet
  facet normal 0 0 -1
    outer loop
      vertex -7.34104 -10.967 0
      vertex -6.02949 -13.6266 0
      vertex -6.58179 -12.8 0
    endloop
  endfacet
  facet normal 0 0 -1
    outer loop
      vertex -7.34104 -10.967 0
      vertex -6.58179 -12.8 0
      vertex -7.02148 -11.9084 0
    endloop
  endfacet
  facet normal 0 0 -1
    outer loop
      vertex 0 -7.2 0
      vertex 7.5 -4.125 0
      vertex 0.9 -7.44115 0
    endloop
  endfacet
  facet normal 0 0 -1
    outer loop
      vertex -7.34104 -10.967 0
      vertex -1.8 -9 0
      vertex -1.55885 -9.9 0
    endloop
  endfacet
  facet normal 0 0 -1
    outer loop
      vertex -7.34104 -10.967 0
      vertex -1.55885 -9.9 0
      vertex -0.9 -10.5588 0
    endloop
  endfacet
  facet normal 0 0 -1
    outer loop
      vertex 0.9 -10.5588 0
      vertex 7.5 -10.1679 0
      vertex 0 -10.8 0
    endloop
  endfacet
  facet normal 0 0 -1
    outer loop
      vertex -7.34104 -10.967 0
      vertex 0 -10.8 0
      vertex 7.34104 -10.967 0
    endloop
  endfacet
  facet normal 0 0 -1
    outer loop
      vertex 1.55885 -9.9 0
      vertex 7.5 -10.1679 0
      vertex 0.9 -10.5588 0
    endloop
  endfacet
  facet normal 0 0 -1
    outer loop
      vertex 1.8 -9 0
      vertex 7.5 -10.1679 0
      vertex 1.55885 -9.9 0
    endloop
  endfacet
  facet normal 0 0 -1
    outer loop
      vertex 1.55885 -8.1 0
      vertex 7.5 -4.125 0
      vertex 1.8 -9 0
    endloop
  endfacet
  facet normal 0 0 -1
    outer loop
      vertex 0.9 -7.44115 0
      vertex 7.5 -4.125 0
      vertex 1.55885 -8.1 0
    endloop
  endfacet
  facet normal 0 0 -1
    outer loop
      vertex 0 -10.8 0
      vertex -7.34104 -10.967 0
      vertex -0.9 -10.5588 0
    endloop
  endfacet
  facet normal 0 0 -1
    outer loop
      vertex -0.9 -7.44115 0
      vertex -4.125 -4.125 0
      vertex 0 -7.2 0
    endloop
  endfacet
  facet normal 0 0 -1
    outer loop
      vertex -1.55885 -8.1 0
      vertex -7.34104 -10.967 0
      vertex -0.9 -7.44115 0
    endloop
  endfacet
  facet normal 0 0 -1
    outer loop
      vertex -7.34104 -10.967 0
      vertex -4.125 -4.125 0
      vertex -0.9 -7.44115 0
    endloop
  endfacet
  facet normal 0 0 -1
    outer loop
      vertex -1.8 -9 0
      vertex -7.34104 -10.967 0
      vertex -1.55885 -8.1 0
    endloop
  endfacet
  facet normal 2.67645e-17 0.992709 -0.120537
    outer loop
      vertex 7.5 -4.00513 0.987177
      vertex 7.5 -4.125 2.58127e-15
      vertex -7.5 -4.00513 0.987177
    endloop
  endfacet
  facet normal 2.67645e-17 0.992709 -0.120537
    outer loop
      vertex -7.5 -4.00513 0.987177
      vertex 7.5 -4.125 2.58127e-15
      vertex -4.125 -4.125 0
    endloop
  endfacet
  facet normal 2.67645e-17 0.992709 -0.120537
    outer loop
      vertex -7.5 -4.00513 0.987177
      vertex -4.125 -4.125 0
      vertex -7.5 -4.125 0
    endloop
  endfacet
  facet normal 7.87381e-17 0.935016 -0.354605
    outer loop
      vertex 7.5 -3.65251 1.91698
      vertex 7.5 -4.00513 0.987177
      vertex -7.5 -3.65251 1.91698
    endloop
  endfacet
  facet normal 7.87381e-17 0.935016 -0.354605
    outer loop
      vertex -7.5 -3.65251 1.91698
      vertex 7.5 -4.00513 0.987177
      vertex -7.5 -4.00513 0.987177
    endloop
  endfacet
  facet normal 1.26136e-16 0.822984 -0.568065
    outer loop
      vertex 7.5 -3.08761 2.73538
      vertex 7.5 -3.65251 1.91698
      vertex -7.5 -3.08761 2.73538
    endloop
  endfacet
  facet normal 1.26136e-16 0.822984 -0.568065
    outer loop
      vertex -7.5 -3.08761 2.73538
      vertex 7.5 -3.65251 1.91698
      vertex -7.5 -3.65251 1.91698
    endloop
  endfacet
  facet normal 1.66203e-16 0.663122 -0.748511
    outer loop
      vertex 7.5 -2.88281 2.91682
      vertex 7.5 -3.08761 2.73538
      vertex -7.5 -2.88281 2.91682
    endloop
  endfacet
  facet normal 1.66203e-16 0.663122 -0.748511
    outer loop
      vertex -7.5 -2.88281 2.91682
      vertex 7.5 -3.08761 2.73538
      vertex -7.5 -3.08761 2.73538
    endloop
  endfacet
  facet normal -2.22045e-16 2.22045e-16 1
    outer loop
      vertex 7.5 -2.91682 2.91682
      vertex 7.5 -2.88281 2.91682
      vertex -7.5 -2.88281 2.91682
    endloop
  endfacet
  facet normal -2.22045e-16 2.22045e-16 1
    outer loop
      vertex -7.5 -2.91682 2.91682
      vertex 7.5 -2.91682 2.91682
      vertex -7.5 -2.88281 2.91682
    endloop
  endfacet
  facet normal 1.57009e-16 0.707107 -0.707107
    outer loop
      vertex 7.5 -1.70863 4.125
      vertex 7.5 -2.91682 2.91682
      vertex -7.5 -1.70863 4.125
    endloop
  endfacet
  facet normal 1.57009e-16 0.707107 -0.707107
    outer loop
      vertex -7.5 -1.70863 4.125
      vertex 7.5 -2.91682 2.91682
      vertex -7.5 -2.91682 2.91682
    endloop
  endfacet
  facet normal 2.22045e-16 -2.22045e-16 -1
    outer loop
      vertex 7.5 0.814461 4.125
      vertex 7.5 -1.70863 4.125
      vertex -7.5 0.814461 4.125
    endloop
  endfacet
  facet normal 2.22045e-16 -2.22045e-16 -1
    outer loop
      vertex -7.5 0.814461 4.125
      vertex 7.5 -1.70863 4.125
      vertex -7.5 -1.70863 4.125
    endloop
  endfacet
  facet normal 2.22045e-16 -1.68193e-07 -1
    outer loop
      vertex 7.5 1.70863 4.125
      vertex 7.5 0.814461 4.125
      vertex -7.5 1.70863 4.125
    endloop
  endfacet
  facet normal 2.22045e-16 -1.68193e-07 -1
    outer loop
      vertex -7.5 1.70863 4.125
      vertex 7.5 0.814461 4.125
      vertex -7.5 0.814461 4.125
    endloop
  endfacet
  facet normal 1.57009e-16 -0.707107 -0.707107
    outer loop
      vertex 7.5 2.91682 2.91682
      vertex 7.5 1.70863 4.125
      vertex -7.5 2.91682 2.91682
    endloop
  endfacet
  facet normal 1.57009e-16 -0.707107 -0.707107
    outer loop
      vertex -7.5 2.91682 2.91682
      vertex 7.5 1.70863 4.125
      vertex -7.5 1.70863 4.125
    endloop
  endfacet
  facet normal -2.22045e-16 2.22045e-16 1
    outer loop
      vertex 7.5 2.88281 2.91682
      vertex 7.5 2.91682 2.91682
      vertex -7.5 2.91682 2.91682
    endloop
  endfacet
  facet normal -2.22045e-16 2.22045e-16 1
    outer loop
      vertex -7.5 2.88281 2.91682
      vertex 7.5 2.88281 2.91682
      vertex -7.5 2.91682 2.91682
    endloop
  endfacet
  facet normal 1.66203e-16 -0.663122 -0.748511
    outer loop
      vertex 7.5 3.08761 2.73538
      vertex 7.5 2.88281 2.91682
      vertex -7.5 3.08761 2.73538
    endloop
  endfacet
  facet normal 1.66203e-16 -0.663122 -0.748511
    outer loop
      vertex -7.5 3.08761 2.73538
      vertex 7.5 2.88281 2.91682
      vertex -7.5 2.88281 2.91682
    endloop
  endfacet
  facet normal 1.26136e-16 -0.822984 -0.568065
    outer loop
      vertex -7.5 3.65251 1.91698
      vertex 7.5 3.65251 1.91698
      vertex 7.5 3.08761 2.73538
    endloop
  endfacet
  facet normal 1.26136e-16 -0.822984 -0.568065
    outer loop
      vertex -7.5 3.08761 2.73538
      vertex -7.5 3.65251 1.91698
      vertex 7.5 3.08761 2.73538
    endloop
  endfacet
  facet normal 7.87381e-17 -0.935016 -0.354605
    outer loop
      vertex -7.5 4.00514 0.987177
      vertex 7.5 4.00514 0.987177
      vertex 7.5 3.65251 1.91698
    endloop
  endfacet
  facet normal 7.87381e-17 -0.935016 -0.354605
    outer loop
      vertex -7.5 3.65251 1.91698
      vertex -7.5 4.00514 0.987177
      vertex 7.5 3.65251 1.91698
    endloop
  endfacet
  facet normal 2.67645e-17 -0.992709 -0.120537
    outer loop
      vertex -7.5 4.125 0
      vertex 4.125 4.125 0
      vertex 7.5 4.125 7.49401e-16
    endloop
  endfacet
  facet normal 2.67645e-17 -0.992709 -0.120537
    outer loop
      vertex -7.5 4.00514 0.987177
      vertex -7.5 4.125 0
      vertex 7.5 4.00514 0.987177
    endloop
  endfacet
  facet normal 2.67645e-17 -0.992709 -0.120537
    outer loop
      vertex 7.5 4.00514 0.987177
      vertex -7.5 4.125 0
      vertex 7.5 4.125 7.49401e-16
    endloop
  endfacet
  facet normal 0 0 -1
    outer loop
      vertex -7.5 4.125 0
      vertex -7.5 10.1679 0
      vertex 4.125 4.125 0
    endloop
  endfacet
  facet normal 0 0 -1
    outer loop
      vertex 4.125 4.125 0
      vertex -7.5 10.1679 0
      vertex -7.34104 10.967 0
    endloop
  endfacet
  facet normal 0 0 -1
    outer loop
      vertex -0.9 7.44115 0
      vertex -7.34104 10.967 0
      vertex -7.02148 11.9084 0
    endloop
  endfacet
  facet normal 0 0 -1
    outer loop
      vertex -1.55885 8.1 0
      vertex -7.02148 11.9084 0
      vertex -6.58179 12.8 0
    endloop
  endfacet
  facet normal 0 0 -1
    outer loop
      vertex -1.8 9 0
      vertex -6.58179 12.8 0
      vertex -6.02948 13.6266 0
    endloop
  endfacet
  facet normal 0 0 -1
    outer loop
      vertex -1.55885 9.9 0
      vertex -6.02948 13.6266 0
      vertex -5.37401 14.374 0
    endloop
  endfacet
  facet normal 0 0 -1
    outer loop
      vertex -0.9 10.5588 0
      vertex -4.62659 15.0295 0
      vertex -3.8 15.5818 0
    endloop
  endfacet
  facet normal 0 0 -1
    outer loop
      vertex 0 10.8 0
      vertex -3.8 15.5818 0
      vertex -2.90839 16.0215 0
    endloop
  endfacet
  facet normal 0 0 -1
    outer loop
      vertex 0.9 10.5588 0
      vertex -2.90839 16.0215 0
      vertex -1.96702 16.341 0
    endloop
  endfacet
  facet normal 0 0 -1
    outer loop
      vertex 4.125 4.125 0
      vertex -1.16786 16.5 0
      vertex 1.16786 16.5 0
    endloop
  endfacet
  facet normal 0 0 -1
    outer loop
      vertex 4.125 4.125 0
      vertex 1.16786 16.5 0
      vertex 1.96703 16.341 0
    endloop
  endfacet
  facet normal 0 0 -1
    outer loop
      vertex 4.125 4.125 0
      vertex 1.96703 16.341 0
      vertex 2.90839 16.0215 0
    endloop
  endfacet
  facet normal 0 0 -1
    outer loop
      vertex 4.125 4.125 0
      vertex 2.90839 16.0215 0
      vertex 3.8 15.5818 0
    endloop
  endfacet
  facet normal 0 0 -1
    outer loop
      vertex 4.125 4.125 0
      vertex 3.8 15.5818 0
      vertex 4.62659 15.0295 0
    endloop
  endfacet
  facet normal 0 0 -1
    outer loop
      vertex 4.125 4.125 0
      vertex 4.62659 15.0295 0
      vertex 5.37401 14.374 0
    endloop
  endfacet
  facet normal 0 0 -1
    outer loop
      vertex 4.125 4.125 0
      vertex 5.37401 14.374 0
      vertex 6.02949 13.6266 0
    endloop
  endfacet
  facet normal 0 0 -1
    outer loop
      vertex 4.125 4.125 0
      vertex 6.02949 13.6266 0
      vertex 6.58179 12.8 0
    endloop
  endfacet
  facet normal 0 0 -1
    outer loop
      vertex 4.125 4.125 0
      vertex 6.58179 12.8 0
      vertex 7.02148 11.9084 0
    endloop
  endfacet
  facet normal 0 0 -1
    outer loop
      vertex 4.125 4.125 0
      vertex 7.02148 11.9084 0
      vertex 7.34104 10.967 0
    endloop
  endfacet
  facet normal 0 0 -1
    outer loop
      vertex 4.125 4.125 0
      vertex 7.34104 10.967 0
      vertex 7.5 10.1679 0
    endloop
  endfacet
  facet normal 0 0 -1
    outer loop
      vertex 4.125 4.125 0
      vertex 7.5 10.1679 0
      vertex 7.5 4.125 0
    endloop
  endfacet
  facet normal 0 0 -1
    outer loop
      vertex -1.55885 8.1 0
      vertex -6.58179 12.8 0
      vertex -1.8 9 0
    endloop
  endfacet
  facet normal 0 0 -1
    outer loop
      vertex -0.9 7.44115 0
      vertex -7.02148 11.9084 0
      vertex -1.55885 8.1 0
    endloop
  endfacet
  facet normal 0 0 -1
    outer loop
      vertex 4.125 4.125 0
      vertex -7.34104 10.967 0
      vertex -0.9 7.44115 0
    endloop
  endfacet
  facet normal 0 0 -1
    outer loop
      vertex 0 7.2 0
      vertex 4.125 4.125 0
      vertex -0.9 7.44115 0
    endloop
  endfacet
  facet normal 0 0 -1
    outer loop
      vertex 0.9 7.44115 0
      vertex 4.125 4.125 0
      vertex 0 7.2 0
    endloop
  endfacet
  facet normal 0 0 -1
    outer loop
      vertex 1.8 9 0
      vertex 4.125 4.125 0
      vertex 1.55885 8.1 0
    endloop
  endfacet
  facet normal 0 0 -1
    outer loop
      vertex 0.9 10.5588 0
      vertex -1.96702 16.341 0
      vertex -1.16786 16.5 0
    endloop
  endfacet
  facet normal 0 0 -1
    outer loop
      vertex 4.125 4.125 0
      vertex 1.8 9 0
      vertex 1.55885 9.9 0
    endloop
  endfacet
  facet normal 0 0 -1
    outer loop
      vertex 4.125 4.125 0
      vertex 1.55885 9.9 0
      vertex -1.16786 16.5 0
    endloop
  endfacet
  facet normal 0 0 -1
    outer loop
      vertex 0.9 10.5588 0
      vertex -1.16786 16.5 0
      vertex 1.55885 9.9 0
    endloop
  endfacet
  facet normal 0 0 -1
    outer loop
      vertex -1.55885 9.9 0
      vertex -4.62659 15.0295 0
      vertex -0.9 10.5588 0
    endloop
  endfacet
  facet normal 0 0 -1
    outer loop
      vertex -0.9 10.5588 0
      vertex -3.8 15.5818 0
      vertex 0 10.8 0
    endloop
  endfacet
  facet normal 0 0 -1
    outer loop
      vertex 0 10.8 0
      vertex -2.90839 16.0215 0
      vertex 0.9 10.5588 0
    endloop
  endfacet
  facet normal 0 0 -1
    outer loop
      vertex -1.8 9 0
      vertex -6.02948 13.6266 0
      vertex -1.55885 9.9 0
    endloop
  endfacet
  facet normal 0 0 -1
    outer loop
      vertex 1.55885 8.1 0
      vertex 4.125 4.125 0
      vertex 0.9 7.44115 0
    endloop
  endfacet
  facet normal 0 0 -1
    outer loop
      vertex -1.55885 9.9 0
      vertex -5.37401 14.374 0
      vertex -4.62659 15.0295 0
    endloop
  endfacet
  facet normal -0.980785 0.195091 0
    outer loop
      vertex -7.5 10.1679 0
      vertex -7.5 10.1679 8
      vertex -7.34104 10.967 0
    endloop
  endfacet
  facet normal -0.980785 0.195091 0
    outer loop
      vertex -7.34104 10.967 0
      vertex -7.5 10.1679 8
      vertex -7.34104 10.967 8
    endloop
  endfacet
  facet normal 0 0 1
    outer loop
      vertex -7.5 10.1679 8
      vertex -7.5 7.44923 8
      vertex -3.3819 7.44923 8
    endloop
  endfacet
  facet normal 0 0 1
    outer loop
      vertex -3.75 9 8
      vertex -7.5 10.1679 8
      vertex -3.62222 8.02943 8
    endloop
  endfacet
  facet normal 0 0 1
    outer loop
      vertex -3.62222 8.02943 8
      vertex -7.5 10.1679 8
      vertex -3.3819 7.44923 8
    endloop
  endfacet
  facet normal 0 0 1
    outer loop
      vertex -3.62222 9.97057 8
      vertex -7.5 10.1679 8
      vertex -3.75 9 8
    endloop
  endfacet
  facet normal 0 0 1
    outer loop
      vertex -3.2476 10.875 8
      vertex -7.5 10.1679 8
      vertex -3.62222 9.97057 8
    endloop
  endfacet
  facet normal 0 0 1
    outer loop
      vertex -2.65165 11.6517 8
      vertex -7.5 10.1679 8
      vertex -3.2476 10.875 8
    endloop
  endfacet
  facet normal 0 0 1
    outer loop
      vertex -1.875 12.2476 8
      vertex -7.5 10.1679 8
      vertex -2.65165 11.6517 8
    endloop
  endfacet
  facet normal 0 0 1
    outer loop
      vertex -0.970571 12.6222 8
      vertex -7.5 10.1679 8
      vertex -1.875 12.2476 8
    endloop
  endfacet
  facet normal 0 0 1
    outer loop
      vertex 4.62659 15.0295 8
      vertex -7.5 10.1679 8
      vertex -0.970571 12.6222 8
    endloop
  endfacet
  facet normal 0 0 1
    outer loop
      vertex 6.02949 13.6266 8
      vertex -0.970571 12.6222 8
      vertex 0 12.75 8
    endloop
  endfacet
  facet normal 0 0 1
    outer loop
      vertex 7.02148 11.9084 8
      vertex 0 12.75 8
      vertex 0.970571 12.6222 8
    endloop
  endfacet
  facet normal 0 0 1
    outer loop
      vertex 7.5 10.1679 8
      vertex 0.970571 12.6222 8
      vertex 1.875 12.2476 8
    endloop
  endfacet
  facet normal 0 0 1
    outer loop
      vertex 7.5 10.1679 8
      vertex 1.875 12.2476 8
      vertex 2.65165 11.6517 8
    endloop
  endfacet
  facet normal 0 0 1
    outer loop
      vertex 7.5 7.44923 8
      vertex 2.65165 11.6517 8
      vertex 3.2476 10.875 8
    endloop
  endfacet
  facet normal 0 0 1
    outer loop
      vertex 7.5 7.44923 8
      vertex 3.2476 10.875 8
      vertex 3.62222 9.97057 8
    endloop
  endfacet
  facet normal 0 0 1
    outer loop
      vertex 7.5 7.44923 8
      vertex 3.62222 9.97057 8
      vertex 3.75 9 8
    endloop
  endfacet
  facet normal 0 0 1
    outer loop
      vertex 7.5 7.44923 8
      vertex 3.75 9 8
      vertex 3.62222 8.02943 8
    endloop
  endfacet
  facet normal 0 0 1
    outer loop
      vertex 7.5 7.44923 8
      vertex 3.62222 8.02943 8
      vertex 3.3819 7.44923 8
    endloop
  endfacet
  facet normal 0 0 1
    outer loop
      vertex 7.5 10.1679 8
      vertex 2.65165 11.6517 8
      vertex 7.5 7.44923 8
    endloop
  endfacet
  facet normal 0 0 1
    outer loop
      vertex 7.34104 10.967 8
      vertex 0.970571 12.6222 8
      vertex 7.5 10.1679 8
    endloop
  endfacet
  facet normal 0 0 1
    outer loop
      vertex 7.02148 11.9084 8
      vertex 0.970571 12.6222 8
      vertex 7.34104 10.967 8
    endloop
  endfacet
  facet normal 0 0 1
    outer loop
      vertex 6.58179 12.8 8
      vertex 0 12.75 8
      vertex 7.02148 11.9084 8
    endloop
  endfacet
  facet normal 0 0 1
    outer loop
      vertex 6.02949 13.6266 8
      vertex 0 12.75 8
      vertex 6.58179 12.8 8
    endloop
  endfacet
  facet normal 0 0 1
    outer loop
      vertex 5.37401 14.374 8
      vertex -0.970571 12.6222 8
      vertex 6.02949 13.6266 8
    endloop
  endfacet
  facet normal 0 0 1
    outer loop
      vertex 4.62659 15.0295 8
      vertex -0.970571 12.6222 8
      vertex 5.37401 14.374 8
    endloop
  endfacet
  facet normal 0 0 1
    outer loop
      vertex 3.8 15.5818 8
      vertex -7.5 10.1679 8
      vertex 4.62659 15.0295 8
    endloop
  endfacet
  facet normal 0 0 1
    outer loop
      vertex 2.90839 16.0215 8
      vertex -7.5 10.1679 8
      vertex 3.8 15.5818 8
    endloop
  endfacet
  facet normal 0 0 1
    outer loop
      vertex 1.96703 16.341 8
      vertex -7.5 10.1679 8
      vertex 2.90839 16.0215 8
    endloop
  endfacet
  facet normal 0 0 1
    outer loop
      vertex 1.16786 16.5 8
      vertex -7.5 10.1679 8
      vertex 1.96703 16.341 8
    endloop
  endfacet
  facet normal 0 0 1
    outer loop
      vertex -1.16786 16.5 8
      vertex -7.5 10.1679 8
      vertex 1.16786 16.5 8
    endloop
  endfacet
  facet normal 0 0 1
    outer loop
      vertex -1.96702 16.341 8
      vertex -7.5 10.1679 8
      vertex -1.16786 16.5 8
    endloop
  endfacet
  facet normal 0 0 1
    outer loop
      vertex -2.90839 16.0215 8
      vertex -7.5 10.1679 8
      vertex -1.96702 16.341 8
    endloop
  endfacet
  facet normal 0 0 1
    outer loop
      vertex -3.8 15.5818 8
      vertex -7.5 10.1679 8
      vertex -2.90839 16.0215 8
    endloop
  endfacet
  facet normal 0 0 1
    outer loop
      vertex -4.62659 15.0295 8
      vertex -7.5 10.1679 8
      vertex -3.8 15.5818 8
    endloop
  endfacet
  facet normal 0 0 1
    outer loop
      vertex -5.37401 14.374 8
      vertex -7.5 10.1679 8
      vertex -4.62659 15.0295 8
    endloop
  endfacet
  facet normal 0 0 1
    outer loop
      vertex -6.02948 13.6266 8
      vertex -7.5 10.1679 8
      vertex -5.37401 14.374 8
    endloop
  endfacet
  facet normal 0 0 1
    outer loop
      vertex -6.58179 12.8 8
      vertex -7.5 10.1679 8
      vertex -6.02948 13.6266 8
    endloop
  endfacet
  facet normal 0 0 1
    outer loop
      vertex -7.02148 11.9084 8
      vertex -7.5 10.1679 8
      vertex -6.58179 12.8 8
    endloop
  endfacet
  facet normal 0 0 1
    outer loop
      vertex -7.34104 10.967 8
      vertex -7.5 10.1679 8
      vertex -7.02148 11.9084 8
    endloop
  endfacet
  facet normal -1.40052e-16 0.775996 0.630738
    outer loop
      vertex -7.5 6.80173 8.79662
      vertex -2.99954 6.80173 8.79662
      vertex -7.5 7.44923 8
    endloop
  endfacet
  facet normal -1.40052e-16 0.775996 0.630738
    outer loop
      vertex -7.5 7.44923 8
      vertex -2.99954 6.80173 8.79662
      vertex -3.2476 7.125 8.3989
    endloop
  endfacet
  facet normal -1.40052e-16 0.775996 0.630738
    outer loop
      vertex -7.5 7.44923 8
      vertex -3.2476 7.125 8.3989
      vertex -3.3819 7.44923 8
    endloop
  endfacet
  facet normal -1.56467e-16 0.70954 0.704665
    outer loop
      vertex -7.5 6.03804 9.56559
      vertex -2.24725 6.03804 9.56559
      vertex -7.5 6.80173 8.79662
    endloop
  endfacet
  facet normal -1.56467e-16 0.70954 0.704665
    outer loop
      vertex -7.5 6.80173 8.79662
      vertex -2.24725 6.03804 9.56559
      vertex -2.65165 6.34835 9.25314
    endloop
  endfacet
  facet normal -1.56467e-16 0.70954 0.704665
    outer loop
      vertex -7.5 6.80173 8.79662
      vertex -2.65165 6.34835 9.25314
      vertex -2.99954 6.80173 8.79662
    endloop
  endfacet
  facet normal -1.71856e-16 0.633221 0.773971
    outer loop
      vertex 0 5.25 10.2103
      vertex -7.5 5.21435 10.2395
      vertex 7.5 5.21435 10.2395
    endloop
  endfacet
  facet normal -1.71856e-16 0.633221 0.773971
    outer loop
      vertex 0 5.25 10.2103
      vertex -0.970571 5.37778 10.1058
      vertex -7.5 5.21435 10.2395
    endloop
  endfacet
  facet normal -1.71856e-16 0.633221 0.773971
    outer loop
      vertex 7.5 6.03804 9.56559
      vertex 2.24725 6.03804 9.56559
      vertex 7.5 5.21435 10.2395
    endloop
  endfacet
  facet normal -1.71856e-16 0.633221 0.773971
    outer loop
      vertex 2.24725 6.03804 9.56559
      vertex 1.875 5.7524 9.79928
      vertex 7.5 5.21435 10.2395
    endloop
  endfacet
  facet normal -1.71856e-16 0.633221 0.773971
    outer loop
      vertex 0.970571 5.37778 10.1058
      vertex 0 5.25 10.2103
      vertex 7.5 5.21435 10.2395
    endloop
  endfacet
  facet normal -1.71856e-16 0.633221 0.773971
    outer loop
      vertex -0.970571 5.37778 10.1058
      vertex -1.875 5.7524 9.79928
      vertex -7.5 6.03804 9.56559
    endloop
  endfacet
  facet normal -1.71856e-16 0.633221 0.773971
    outer loop
      vertex -1.875 5.7524 9.79928
      vertex -2.24725 6.03804 9.56559
      vertex -7.5 6.03804 9.56559
    endloop
  endfacet
  facet normal -1.71856e-16 0.633221 0.773971
    outer loop
      vertex -7.5 6.03804 9.56559
      vertex -7.5 5.21435 10.2395
      vertex -0.970571 5.37778 10.1058
    endloop
  endfacet
  facet normal -1.71856e-16 0.633221 0.773971
    outer loop
      vertex 1.875 5.7524 9.79928
      vertex 0.970571 5.37778 10.1058
      vertex 7.5 5.21435 10.2395
    endloop
  endfacet
  facet normal -1.85875e-16 0.547038 0.837108
    outer loop
      vertex -7.5 5.21435 10.2395
      vertex -7.5 4.33884 10.8116
      vertex 7.5 4.33884 10.8116
    endloop
  endfacet
  facet normal -1.85875e-16 0.547038 0.837108
    outer loop
      vertex 7.5 5.21435 10.2395
      vertex -7.5 5.21435 10.2395
      vertex 7.5 4.33884 10.8116
    endloop
  endfacet
  facet normal -1.98138e-16 0.451379 0.892332
    outer loop
      vertex -7.5 4.33884 10.8116
      vertex -7.5 3.4202 11.2763
      vertex 7.5 3.4202 11.2763
    endloop
  endfacet
  facet normal -1.98138e-16 0.451379 0.892332
    outer loop
      vertex 7.5 4.33884 10.8116
      vertex -7.5 4.33884 10.8116
      vertex 7.5 3.4202 11.2763
    endloop
  endfacet
  facet normal -2.08237e-16 0.347134 0.937816
    outer loop
      vertex -7.5 3.4202 11.2763
      vertex -7.5 2.46757 11.6289
      vertex 7.5 2.46757 11.6289
    endloop
  endfacet
  facet normal -2.08237e-16 0.347134 0.937816
    outer loop
      vertex 7.5 3.4202 11.2763
      vertex -7.5 3.4202 11.2763
      vertex 7.5 2.46757 11.6289
    endloop
  endfacet
  facet normal -2.15786e-16 0.235747 0.971814
    outer loop
      vertex -7.5 2.46757 11.6289
      vertex -7.5 1.49042 11.866
      vertex 7.5 1.49042 11.866
    endloop
  endfacet
  facet normal -2.15786e-16 0.235747 0.971814
    outer loop
      vertex 7.5 2.46757 11.6289
      vertex -7.5 2.46757 11.6289
      vertex 7.5 1.49042 11.866
    endloop
  endfacet
  facet normal -2.20461e-16 0.119222 0.992868
    outer loop
      vertex -7.5 1.49042 11.866
      vertex -7.5 0.498459 11.9851
      vertex 7.5 0.498459 11.9851
    endloop
  endfacet
  facet normal -2.20461e-16 0.119222 0.992868
    outer loop
      vertex 7.5 1.49042 11.866
      vertex -7.5 1.49042 11.866
      vertex 7.5 0.498459 11.9851
    endloop
  endfacet
  facet normal -2.22045e-16 0 1
    outer loop
      vertex -7.5 0.498459 11.9851
      vertex -7.5 -0.498459 11.9851
      vertex 7.5 -0.498459 11.9851
    endloop
  endfacet
  facet normal -2.22045e-16 0 1
    outer loop
      vertex 7.5 0.498459 11.9851
      vertex -7.5 0.498459 11.9851
      vertex 7.5 -0.498459 11.9851
    endloop
  endfacet
  facet normal -2.20461e-16 -0.119222 0.992868
    outer loop
      vertex -7.5 -0.498459 11.9851
      vertex -7.5 -1.49042 11.866
      vertex 7.5 -1.49042 11.866
    endloop
  endfacet
  facet normal -2.20461e-16 -0.119222 0.992868
    outer loop
      vertex 7.5 -0.498459 11.9851
      vertex -7.5 -0.498459 11.9851
      vertex 7.5 -1.49042 11.866
    endloop
  endfacet
  facet normal -2.15786e-16 -0.235747 0.971814
    outer loop
      vertex -7.5 -1.49042 11.866
      vertex -7.5 -2.46757 11.6289
      vertex 7.5 -2.46757 11.6289
    endloop
  endfacet
  facet normal -2.15786e-16 -0.235747 0.971814
    outer loop
      vertex 7.5 -1.49042 11.866
      vertex -7.5 -1.49042 11.866
      vertex 7.5 -2.46757 11.6289
    endloop
  endfacet
  facet normal -2.08237e-16 -0.347134 0.937816
    outer loop
      vertex -7.5 -2.46757 11.6289
      vertex -7.5 -3.4202 11.2763
      vertex 7.5 -3.4202 11.2763
    endloop
  endfacet
  facet normal -2.08237e-16 -0.347134 0.937816
    outer loop
      vertex 7.5 -2.46757 11.6289
      vertex -7.5 -2.46757 11.6289
      vertex 7.5 -3.4202 11.2763
    endloop
  endfacet
  facet normal -1.98138e-16 -0.451379 0.892332
    outer loop
      vertex -7.5 -3.4202 11.2763
      vertex -7.5 -4.33884 10.8116
      vertex 7.5 -4.33884 10.8116
    endloop
  endfacet
  facet normal -1.98138e-16 -0.451379 0.892332
    outer loop
      vertex 7.5 -3.4202 11.2763
      vertex -7.5 -3.4202 11.2763
      vertex 7.5 -4.33884 10.8116
    endloop
  endfacet
  facet normal -1.85875e-16 -0.547038 0.837108
    outer loop
      vertex -7.5 -4.33884 10.8116
      vertex -7.5 -5.21435 10.2395
      vertex 7.5 -5.21435 10.2395
    endloop
  endfacet
  facet normal -1.85875e-16 -0.547038 0.837108
    outer loop
      vertex 7.5 -4.33884 10.8116
      vertex -7.5 -4.33884 10.8116
      vertex 7.5 -5.21435 10.2395
    endloop
  endfacet
  facet normal -1.71856e-16 -0.633221 0.773971
    outer loop
      vertex -7.5 -5.21435 10.2395
      vertex -7.5 -6.03804 9.56559
      vertex -2.24725 -6.03804 9.56559
    endloop
  endfacet
  facet normal -1.71856e-16 -0.633221 0.773971
    outer loop
      vertex -0.970571 -5.37778 10.1058
      vertex -7.5 -5.21435 10.2395
      vertex -1.875 -5.7524 9.79928
    endloop
  endfacet
  facet normal -1.71856e-16 -0.633221 0.773971
    outer loop
      vertex -1.875 -5.7524 9.79928
      vertex -7.5 -5.21435 10.2395
      vertex -2.24725 -6.03804 9.56559
    endloop
  endfacet
  facet normal -1.71856e-16 -0.633221 0.773971
    outer loop
      vertex 0 -5.25 10.2103
      vertex -7.5 -5.21435 10.2395
      vertex -0.970571 -5.37778 10.1058
    endloop
  endfacet
  facet normal -1.71856e-16 -0.633221 0.773971
    outer loop
      vertex 7.5 -5.21435 10.2395
      vertex -7.5 -5.21435 10.2395
      vertex 0 -5.25 10.2103
    endloop
  endfacet
  facet normal -1.71856e-16 -0.633221 0.773971
    outer loop
      vertex 7.5 -6.03804 9.56559
      vertex 0 -5.25 10.2103
      vertex 0.970571 -5.37778 10.1058
    endloop
  endfacet
  facet normal -1.71856e-16 -0.633221 0.773971
    outer loop
      vertex 7.5 -6.03804 9.56559
      vertex 0.970571 -5.37778 10.1058
      vertex 1.875 -5.7524 9.79928
    endloop
  endfacet
  facet normal -1.71856e-16 -0.633221 0.773971
    outer loop
      vertex 7.5 -6.03804 9.56559
      vertex 1.875 -5.7524 9.79928
      vertex 2.24725 -6.03804 9.56559
    endloop
  endfacet
  facet normal -1.71856e-16 -0.633221 0.773971
    outer loop
      vertex 7.5 -5.21435 10.2395
      vertex 0 -5.25 10.2103
      vertex 7.5 -6.03804 9.56559
    endloop
  endfacet
  facet normal -1.56467e-16 -0.70954 0.704665
    outer loop
      vertex -7.5 -6.03804 9.56559
      vertex -7.5 -6.80173 8.79662
      vertex -2.99954 -6.80173 8.79662
    endloop
  endfacet
  facet normal -1.56467e-16 -0.70954 0.704665
    outer loop
      vertex -2.24725 -6.03804 9.56559
      vertex -7.5 -6.03804 9.56559
      vertex -2.65165 -6.34835 9.25314
    endloop
  endfacet
  facet normal -1.56467e-16 -0.70954 0.704665
    outer loop
      vertex -2.65165 -6.34835 9.25314
      vertex -7.5 -6.03804 9.56559
      vertex -2.99954 -6.80173 8.79662
    endloop
  endfacet
  facet normal -1.40052e-16 -0.775996 0.630738
    outer loop
      vertex -7.5 -6.80173 8.79662
      vertex -7.5 -7.44923 8
      vertex -3.3819 -7.44923 8
    endloop
  endfacet
  facet normal -1.40052e-16 -0.775996 0.630738
    outer loop
      vertex -2.99954 -6.80173 8.79662
      vertex -7.5 -6.80173 8.79662
      vertex -3.2476 -7.125 8.3989
    endloop
  endfacet
  facet normal -1.40052e-16 -0.775996 0.630738
    outer loop
      vertex -3.2476 -7.125 8.3989
      vertex -7.5 -6.80173 8.79662
      vertex -3.3819 -7.44923 8
    endloop
  endfacet
  facet normal 0 0 1
    outer loop
      vertex -7.5 -7.44923 8
      vertex -7.5 -10.1679 8
      vertex -7.34104 -10.967 8
    endloop
  endfacet
  facet normal 0 0 1
    outer loop
      vertex -6.58179 -12.8 8
      vertex -7.5 -7.44923 8
      vertex -7.02148 -11.9084 8
    endloop
  endfacet
  facet normal 0 0 1
    outer loop
      vertex -7.02148 -11.9084 8
      vertex -7.5 -7.44923 8
      vertex -7.34104 -10.967 8
    endloop
  endfacet
  facet normal 0 0 1
    outer loop
      vertex -6.02949 -13.6266 8
      vertex -7.5 -7.44923 8
      vertex -6.58179 -12.8 8
    endloop
  endfacet
  facet normal 0 0 1
    outer loop
      vertex -5.37401 -14.374 8
      vertex -7.5 -7.44923 8
      vertex -6.02949 -13.6266 8
    endloop
  endfacet
  facet normal 0 0 1
    outer loop
      vertex -4.62659 -15.0295 8
      vertex -7.5 -7.44923 8
      vertex -5.37401 -14.374 8
    endloop
  endfacet
  facet normal 0 0 1
    outer loop
      vertex -3.8 -15.5818 8
      vertex -7.5 -7.44923 8
      vertex -4.62659 -15.0295 8
    endloop
  endfacet
  facet normal 0 0 1
    outer loop
      vertex -2.90839 -16.0215 8
      vertex -7.5 -7.44923 8
      vertex -3.8 -15.5818 8
    endloop
  endfacet
  facet normal 0 0 1
    outer loop
      vertex -1.96703 -16.341 8
      vertex -7.5 -7.44923 8
      vertex -2.90839 -16.0215 8
    endloop
  endfacet
  facet normal 0 0 1
    outer loop
      vertex -1.16786 -16.5 8
      vertex -7.5 -7.44923 8
      vertex -1.96703 -16.341 8
    endloop
  endfacet
  facet normal 0 0 1
    outer loop
      vertex 1.16786 -16.5 8
      vertex -7.5 -7.44923 8
      vertex -1.16786 -16.5 8
    endloop
  endfacet
  facet normal 0 0 1
    outer loop
      vertex 1.96702 -16.341 8
      vertex -7.5 -7.44923 8
      vertex 1.16786 -16.5 8
    endloop
  endfacet
  facet normal 0 0 1
    outer loop
      vertex -2.65165 -11.6517 8
      vertex -7.5 -7.44923 8
      vertex 1.96702 -16.341 8
    endloop
  endfacet
  facet normal 0 0 1
    outer loop
      vertex -2.65165 -11.6517 8
      vertex -3.2476 -10.875 8
      vertex -7.5 -7.44923 8
    endloop
  endfacet
  facet normal 0 0 1
    outer loop
      vertex -0.970571 -12.6222 8
      vertex -1.875 -12.2476 8
      vertex 2.90839 -16.0215 8
    endloop
  endfacet
  facet normal 0 0 1
    outer loop
      vertex 1.875 -12.2476 8
      vertex 0.970571 -12.6222 8
      vertex 5.37401 -14.374 8
    endloop
  endfacet
  facet normal 0 0 1
    outer loop
      vertex 0.970571 -12.6222 8
      vertex 0 -12.75 8
      vertex 4.62659 -15.0295 8
    endloop
  endfacet
  facet normal 0 0 1
    outer loop
      vertex 3.2476 -10.875 8
      vertex 2.65165 -11.6517 8
      vertex 6.58179 -12.8 8
    endloop
  endfacet
  facet normal 0 0 1
    outer loop
      vertex 3.62222 -9.97057 8
      vertex 7.02148 -11.9084 8
      vertex 7.34104 -10.967 8
    endloop
  endfacet
  facet normal 0 0 1
    outer loop
      vertex 7.5 -7.44923 8
      vertex 3.3819 -7.44923 8
      vertex 7.5 -10.1679 8
    endloop
  endfacet
  facet normal 0 0 1
    outer loop
      vertex 3.3819 -7.44923 8
      vertex 3.62222 -8.02943 8
      vertex 7.5 -10.1679 8
    endloop
  endfacet
  facet normal 0 0 1
    outer loop
      vertex 3.62222 -8.02943 8
      vertex 3.75 -9 8
      vertex 7.5 -10.1679 8
    endloop
  endfacet
  facet normal 0 0 1
    outer loop
      vertex 7.5 -10.1679 8
      vertex 3.62222 -9.97057 8
      vertex 7.34104 -10.967 8
    endloop
  endfacet
  facet normal 0 0 1
    outer loop
      vertex 7.02148 -11.9084 8
      vertex 3.2476 -10.875 8
      vertex 6.58179 -12.8 8
    endloop
  endfacet
  facet normal 0 0 1
    outer loop
      vertex -3.62222 -8.02943 8
      vertex -3.3819 -7.44923 8
      vertex -7.5 -7.44923 8
    endloop
  endfacet
  facet normal 0 0 1
    outer loop
      vertex 6.58179 -12.8 8
      vertex 2.65165 -11.6517 8
      vertex 6.02948 -13.6266 8
    endloop
  endfacet
  facet normal 0 0 1
    outer loop
      vertex 6.02948 -13.6266 8
      vertex 1.875 -12.2476 8
      vertex 5.37401 -14.374 8
    endloop
  endfacet
  facet normal 0 0 1
    outer loop
      vertex -3.75 -9 8
      vertex -3.62222 -8.02943 8
      vertex -7.5 -7.44923 8
    endloop
  endfacet
  facet normal 0 0 1
    outer loop
      vertex 5.37401 -14.374 8
      vertex 0.970571 -12.6222 8
      vertex 4.62659 -15.0295 8
    endloop
  endfacet
  facet normal 0 0 1
    outer loop
      vertex 4.62659 -15.0295 8
      vertex 0 -12.75 8
      vertex 3.8 -15.5818 8
    endloop
  endfacet
  facet normal 0 0 1
    outer loop
      vertex 3.8 -15.5818 8
      vertex -0.970571 -12.6222 8
      vertex 2.90839 -16.0215 8
    endloop
  endfacet
  facet normal 0 0 1
    outer loop
      vertex 2.90839 -16.0215 8
      vertex -1.875 -12.2476 8
      vertex 1.96702 -16.341 8
    endloop
  endfacet
  facet normal 0 0 1
    outer loop
      vertex -1.875 -12.2476 8
      vertex -2.65165 -11.6517 8
      vertex 1.96702 -16.341 8
    endloop
  endfacet
  facet normal 0 0 1
    outer loop
      vertex -3.2476 -10.875 8
      vertex -3.62222 -9.97057 8
      vertex -7.5 -7.44923 8
    endloop
  endfacet
  facet normal 0 0 1
    outer loop
      vertex 0 -12.75 8
      vertex -0.970571 -12.6222 8
      vertex 3.8 -15.5818 8
    endloop
  endfacet
  facet normal 0 0 1
    outer loop
      vertex 2.65165 -11.6517 8
      vertex 1.875 -12.2476 8
      vertex 6.02948 -13.6266 8
    endloop
  endfacet
  facet normal 0 0 1
    outer loop
      vertex 3.62222 -9.97057 8
      vertex 3.2476 -10.875 8
      vertex 7.02148 -11.9084 8
    endloop
  endfacet
  facet normal 0 0 1
    outer loop
      vertex 3.75 -9 8
      vertex 3.62222 -9.97057 8
      vertex 7.5 -10.1679 8
    endloop
  endfacet
  facet normal 0 0 1
    outer loop
      vertex -3.62222 -9.97057 8
      vertex -3.75 -9 8
      vertex -7.5 -7.44923 8
    endloop
  endfacet
  facet normal -0.94693 -0.32144 0
    outer loop
      vertex -7.34104 -10.967 0
      vertex -7.02148 -11.9084 0
      vertex -7.34104 -10.967 8
    endloop
  endfacet
  facet normal -0.94693 -0.32144 0
    outer loop
      vertex -7.34104 -10.967 8
      vertex -7.02148 -11.9084 0
      vertex -7.02148 -11.9084 8
    endloop
  endfacet
  facet normal -0.896873 -0.442288 0
    outer loop
      vertex -7.02148 -11.9084 0
      vertex -6.58179 -12.8 0
      vertex -7.02148 -11.9084 8
    endloop
  endfacet
  facet normal -0.896873 -0.442288 0
    outer loop
      vertex -7.02148 -11.9084 8
      vertex -6.58179 -12.8 0
      vertex -6.58179 -12.8 8
    endloop
  endfacet
  facet normal -0.83147 -0.55557 0
    outer loop
      vertex -6.58179 -12.8 0
      vertex -6.02949 -13.6266 0
      vertex -6.58179 -12.8 8
    endloop
  endfacet
  facet normal -0.83147 -0.55557 0
    outer loop
      vertex -6.58179 -12.8 8
      vertex -6.02949 -13.6266 0
      vertex -6.02949 -13.6266 8
    endloop
  endfacet
  facet normal -0.75184 -0.659345 0
    outer loop
      vertex -6.02949 -13.6266 0
      vertex -5.37401 -14.374 0
      vertex -6.02949 -13.6266 8
    endloop
  endfacet
  facet normal -0.75184 -0.659345 0
    outer loop
      vertex -6.02949 -13.6266 8
      vertex -5.37401 -14.374 0
      vertex -5.37401 -14.374 8
    endloop
  endfacet
  facet normal -0.659345 -0.75184 0
    outer loop
      vertex -5.37401 -14.374 8
      vertex -5.37401 -14.374 0
      vertex -4.62659 -15.0295 0
    endloop
  endfacet
  facet normal -0.659345 -0.75184 0
    outer loop
      vertex -4.62659 -15.0295 8
      vertex -5.37401 -14.374 8
      vertex -4.62659 -15.0295 0
    endloop
  endfacet
  facet normal -0.55557 -0.83147 0
    outer loop
      vertex -4.62659 -15.0295 8
      vertex -4.62659 -15.0295 0
      vertex -3.8 -15.5818 0
    endloop
  endfacet
  facet normal -0.55557 -0.83147 0
    outer loop
      vertex -3.8 -15.5818 8
      vertex -4.62659 -15.0295 8
      vertex -3.8 -15.5818 0
    endloop
  endfacet
  facet normal -0.442288 -0.896873 0
    outer loop
      vertex -3.8 -15.5818 8
      vertex -3.8 -15.5818 0
      vertex -2.90839 -16.0215 0
    endloop
  endfacet
  facet normal -0.442288 -0.896873 0
    outer loop
      vertex -2.90839 -16.0215 8
      vertex -3.8 -15.5818 8
      vertex -2.90839 -16.0215 0
    endloop
  endfacet
  facet normal -0.32144 -0.94693 0
    outer loop
      vertex -2.90839 -16.0215 8
      vertex -2.90839 -16.0215 0
      vertex -1.96703 -16.341 0
    endloop
  endfacet
  facet normal -0.32144 -0.94693 0
    outer loop
      vertex -1.96703 -16.341 8
      vertex -2.90839 -16.0215 8
      vertex -1.96703 -16.341 0
    endloop
  endfacet
  facet normal -0.195091 -0.980785 0
    outer loop
      vertex -1.96703 -16.341 8
      vertex -1.96703 -16.341 0
      vertex -1.16786 -16.5 0
    endloop
  endfacet
  facet normal -0.195091 -0.980785 0
    outer loop
      vertex -1.16786 -16.5 8
      vertex -1.96703 -16.341 8
      vertex -1.16786 -16.5 0
    endloop
  endfacet
  facet normal 0 -1 0
    outer loop
      vertex -1.16786 -16.5 8
      vertex -1.16786 -16.5 0
      vertex 1.16786 -16.5 0
    endloop
  endfacet
  facet normal 0 -1 0
    outer loop
      vertex 1.16786 -16.5 8
      vertex -1.16786 -16.5 8
      vertex 1.16786 -16.5 0
    endloop
  endfacet
  facet normal 0.195091 -0.980785 0
    outer loop
      vertex 1.16786 -16.5 8
      vertex 1.16786 -16.5 0
      vertex 1.96702 -16.341 0
    endloop
  endfacet
  facet normal 0.195091 -0.980785 0
    outer loop
      vertex 1.96702 -16.341 8
      vertex 1.16786 -16.5 8
      vertex 1.96702 -16.341 0
    endloop
  endfacet
  facet normal 0.32144 -0.94693 0
    outer loop
      vertex 1.96702 -16.341 8
      vertex 1.96702 -16.341 0
      vertex 2.90839 -16.0215 0
    endloop
  endfacet
  facet normal 0.32144 -0.94693 0
    outer loop
      vertex 2.90839 -16.0215 8
      vertex 1.96702 -16.341 8
      vertex 2.90839 -16.0215 0
    endloop
  endfacet
  facet normal 0.442288 -0.896873 0
    outer loop
      vertex 2.90839 -16.0215 8
      vertex 2.90839 -16.0215 0
      vertex 3.8 -15.5818 0
    endloop
  endfacet
  facet normal 0.442288 -0.896873 0
    outer loop
      vertex 3.8 -15.5818 8
      vertex 2.90839 -16.0215 8
      vertex 3.8 -15.5818 0
    endloop
  endfacet
  facet normal 0.55557 -0.83147 0
    outer loop
      vertex 3.8 -15.5818 8
      vertex 3.8 -15.5818 0
      vertex 4.62659 -15.0295 0
    endloop
  endfacet
  facet normal 0.55557 -0.83147 0
    outer loop
      vertex 4.62659 -15.0295 8
      vertex 3.8 -15.5818 8
      vertex 4.62659 -15.0295 0
    endloop
  endfacet
  facet normal 0.659345 -0.75184 0
    outer loop
      vertex 4.62659 -15.0295 8
      vertex 4.62659 -15.0295 0
      vertex 5.37401 -14.374 0
    endloop
  endfacet
  facet normal 0.659345 -0.75184 0
    outer loop
      vertex 5.37401 -14.374 8
      vertex 4.62659 -15.0295 8
      vertex 5.37401 -14.374 0
    endloop
  endfacet
  facet normal 0.75184 -0.659345 0
    outer loop
      vertex 5.37401 -14.374 8
      vertex 5.37401 -14.374 0
      vertex 6.02948 -13.6266 0
    endloop
  endfacet
  facet normal 0.75184 -0.659345 0
    outer loop
      vertex 6.02948 -13.6266 8
      vertex 5.37401 -14.374 8
      vertex 6.02948 -13.6266 0
    endloop
  endfacet
  facet normal 0.83147 -0.55557 0
    outer loop
      vertex 6.02948 -13.6266 8
      vertex 6.02948 -13.6266 0
      vertex 6.58179 -12.8 0
    endloop
  endfacet
  facet normal 0.83147 -0.55557 0
    outer loop
      vertex 6.58179 -12.8 8
      vertex 6.02948 -13.6266 8
      vertex 6.58179 -12.8 0
    endloop
  endfacet
  facet normal 0.896873 -0.442288 0
    outer loop
      vertex 6.58179 -12.8 8
      vertex 6.58179 -12.8 0
      vertex 7.02148 -11.9084 0
    endloop
  endfacet
  facet normal 0.896873 -0.442288 0
    outer loop
      vertex 7.02148 -11.9084 8
      vertex 6.58179 -12.8 8
      vertex 7.02148 -11.9084 0
    endloop
  endfacet
  facet normal 0.94693 -0.32144 0
    outer loop
      vertex 7.02148 -11.9084 8
      vertex 7.02148 -11.9084 0
      vertex 7.34104 -10.967 0
    endloop
  endfacet
  facet normal 0.94693 -0.32144 0
    outer loop
      vertex 7.34104 -10.967 8
      vertex 7.02148 -11.9084 8
      vertex 7.34104 -10.967 0
    endloop
  endfacet
  facet normal 0.980785 -0.195091 0
    outer loop
      vertex 7.34104 -10.967 8
      vertex 7.34104 -10.967 0
      vertex 7.5 -10.1679 0
    endloop
  endfacet
  facet normal 0.980785 -0.195091 0
    outer loop
      vertex 7.5 -10.1679 8
      vertex 7.34104 -10.967 8
      vertex 7.5 -10.1679 0
    endloop
  endfacet
  facet normal 1 0 0
    outer loop
      vertex 7.5 -10.1679 8
      vertex 7.5 -10.1679 0
      vertex 7.5 -4.125 0
    endloop
  endfacet
  facet normal 1 0 0
    outer loop
      vertex 7.5 -4.00513 0.987177
      vertex 7.5 -10.1679 8
      vertex 7.5 -4.125 2.58127e-15
    endloop
  endfacet
  facet normal 1 0 0
    outer loop
      vertex 7.5 -4.125 2.58127e-15
      vertex 7.5 -10.1679 8
      vertex 7.5 -4.125 0
    endloop
  endfacet
  facet normal 1 0 0
    outer loop
      vertex 7.5 -3.65251 1.91698
      vertex 7.5 -10.1679 8
      vertex 7.5 -4.00513 0.987177
    endloop
  endfacet
  facet normal 1 0 0
    outer loop
      vertex 7.5 -3.08761 2.73538
      vertex 7.5 -10.1679 8
      vertex 7.5 -3.65251 1.91698
    endloop
  endfacet
  facet normal 1 0 0
    outer loop
      vertex 7.5 -2.91682 2.91682
      vertex 7.5 -10.1679 8
      vertex 7.5 -3.08761 2.73538
    endloop
  endfacet
  facet normal 1 0 0
    outer loop
      vertex 7.5 -2.88281 2.91682
      vertex 7.5 -2.91682 2.91682
      vertex 7.5 -3.08761 2.73538
    endloop
  endfacet
  facet normal 1 0 0
    outer loop
      vertex 7.5 2.88281 2.91682
      vertex 7.5 3.08761 2.73538
      vertex 7.5 2.91682 2.91682
    endloop
  endfacet
  facet normal 1 0 0
    outer loop
      vertex 7.5 0.814461 4.125
      vertex 7.5 -10.1679 8
      vertex 7.5 -1.70863 4.125
    endloop
  endfacet
  facet normal 1 0 0
    outer loop
      vertex 7.5 1.70863 4.125
      vertex 7.5 -10.1679 8
      vertex 7.5 0.814461 4.125
    endloop
  endfacet
  facet normal 1 0 0
    outer loop
      vertex 7.5 7.44923 8
      vertex 7.5 -7.44923 8
      vertex 7.5 1.70863 4.125
    endloop
  endfacet
  facet normal 1 0 0
    outer loop
      vertex 7.5 10.1679 0
      vertex 7.5 1.70863 4.125
      vertex 7.5 2.91682 2.91682
    endloop
  endfacet
  facet normal 1 0 0
    outer loop
      vertex 7.5 -4.33884 10.8116
      vertex 7.5 -5.21435 10.2395
      vertex 7.5 -2.46757 11.6289
    endloop
  endfacet
  facet normal 1 0 0
    outer loop
      vertex 7.5 10.1679 0
      vertex 7.5 2.91682 2.91682
      vertex 7.5 3.08761 2.73538
    endloop
  endfacet
  facet normal 1 0 0
    outer loop
      vertex 7.5 10.1679 0
      vertex 7.5 3.08761 2.73538
      vertex 7.5 3.65251 1.91698
    endloop
  endfacet
  facet normal 1 0 0
    outer loop
      vertex 7.5 10.1679 0
      vertex 7.5 3.65251 1.91698
      vertex 7.5 4.00514 0.987177
    endloop
  endfacet
  facet normal 1 0 0
    outer loop
      vertex 7.5 10.1679 0
      vertex 7.5 4.00514 0.987177
      vertex 7.5 4.125 7.49401e-16
    endloop
  endfacet
  facet normal 1 0 0
    outer loop
      vertex 7.5 10.1679 0
      vertex 7.5 4.125 7.49401e-16
      vertex 7.5 4.125 0
    endloop
  endfacet
  facet normal 1 0 0
    outer loop
      vertex 7.5 10.1679 8
      vertex 7.5 1.70863 4.125
      vertex 7.5 10.1679 0
    endloop
  endfacet
  facet normal 1 0 0
    outer loop
      vertex 7.5 -7.44923 8
      vertex 7.5 -10.1679 8
      vertex 7.5 1.70863 4.125
    endloop
  endfacet
  facet normal 1 0 0
    outer loop
      vertex 7.5 10.1679 8
      vertex 7.5 7.44923 8
      vertex 7.5 1.70863 4.125
    endloop
  endfacet
  facet normal 1 0 0
    outer loop
      vertex 7.5 -6.80173 8.79662
      vertex 7.5 5.21435 10.2395
      vertex 7.5 4.33884 10.8116
    endloop
  endfacet
  facet normal 1 0 0
    outer loop
      vertex 7.5 -6.80173 8.79662
      vertex 7.5 6.03804 9.56559
      vertex 7.5 5.21435 10.2395
    endloop
  endfacet
  facet normal 1 0 0
    outer loop
      vertex 7.5 -6.80173 8.79662
      vertex 7.5 6.80173 8.79662
      vertex 7.5 6.03804 9.56559
    endloop
  endfacet
  facet normal 1 0 0
    outer loop
      vertex 7.5 -6.03804 9.56559
      vertex 7.5 1.49042 11.866
      vertex 7.5 0.498459 11.9851
    endloop
  endfacet
  facet normal 1 0 0
    outer loop
      vertex 7.5 -5.21435 10.2395
      vertex 7.5 -0.498459 11.9851
      vertex 7.5 -1.49042 11.866
    endloop
  endfacet
  facet normal 1 0 0
    outer loop
      vertex 7.5 -2.46757 11.6289
      vertex 7.5 -3.4202 11.2763
      vertex 7.5 -4.33884 10.8116
    endloop
  endfacet
  facet normal 1 0 0
    outer loop
      vertex 7.5 -6.03804 9.56559
      vertex 7.5 2.46757 11.6289
      vertex 7.5 1.49042 11.866
    endloop
  endfacet
  facet normal 1 0 0
    outer loop
      vertex 7.5 -1.49042 11.866
      vertex 7.5 -2.46757 11.6289
      vertex 7.5 -5.21435 10.2395
    endloop
  endfacet
  facet normal 1 0 0
    outer loop
      vertex 7.5 -6.80173 8.79662
      vertex 7.5 -7.44923 8
      vertex 7.5 6.80173 8.79662
    endloop
  endfacet
  facet normal 1 0 0
    outer loop
      vertex 7.5 0.498459 11.9851
      vertex 7.5 -0.498459 11.9851
      vertex 7.5 -6.03804 9.56559
    endloop
  endfacet
  facet normal 1 0 0
    outer loop
      vertex 7.5 4.33884 10.8116
      vertex 7.5 3.4202 11.2763
      vertex 7.5 -6.80173 8.79662
    endloop
  endfacet
  facet normal 1 0 0
    outer loop
      vertex 7.5 6.80173 8.79662
      vertex 7.5 -7.44923 8
      vertex 7.5 7.44923 8
    endloop
  endfacet
  facet normal 1 0 0
    outer loop
      vertex 7.5 -2.91682 2.91682
      vertex 7.5 -1.70863 4.125
      vertex 7.5 -10.1679 8
    endloop
  endfacet
  facet normal 1 0 0
    outer loop
      vertex 7.5 -5.21435 10.2395
      vertex 7.5 -6.03804 9.56559
      vertex 7.5 -0.498459 11.9851
    endloop
  endfacet
  facet normal 1 0 0
    outer loop
      vertex 7.5 -6.03804 9.56559
      vertex 7.5 3.4202 11.2763
      vertex 7.5 2.46757 11.6289
    endloop
  endfacet
  facet normal 1 0 0
    outer loop
      vertex 7.5 -6.03804 9.56559
      vertex 7.5 -6.80173 8.79662
      vertex 7.5 3.4202 11.2763
    endloop
  endfacet
  facet normal -2.67645e-17 0.992709 0.120537
    outer loop
      vertex 7.5 -4.125 2.58127e-15
      vertex 7.5 -4.125 0
      vertex -4.125 -4.125 0
    endloop
  endfacet
  facet normal 0.965926 -0.258819 0
    outer loop
      vertex -1.55885 -8.1 0
      vertex -1.55885 -8.1 8
      vertex -1.8 -9 8
    endloop
  endfacet
  facet normal 0.965926 -0.258819 0
    outer loop
      vertex -1.8 -9 0
      vertex -1.55885 -8.1 0
      vertex -1.8 -9 8
    endloop
  endfacet
  facet normal 0.965926 0.258819 0
    outer loop
      vertex -1.8 -9 8
      vertex -1.55885 -9.9 8
      vertex -1.55885 -9.9 0
    endloop
  endfacet
  facet normal 0.965926 0.258819 0
    outer loop
      vertex -1.8 -9 0
      vertex -1.8 -9 8
      vertex -1.55885 -9.9 0
    endloop
  endfacet
  facet normal 0.707107 -0.707107 0
    outer loop
      vertex -0.9 -7.44115 0
      vertex -0.9 -7.44115 8
      vertex -1.55885 -8.1 8
    endloop
  endfacet
  facet normal 0.707107 -0.707107 0
    outer loop
      vertex -1.55885 -8.1 0
      vertex -0.9 -7.44115 0
      vertex -1.55885 -8.1 8
    endloop
  endfacet
  facet normal 0.258819 -0.965926 0
    outer loop
      vertex 0 -7.2 0
      vertex 0 -7.2 8
      vertex -0.9 -7.44115 8
    endloop
  endfacet
  facet normal 0.258819 -0.965926 0
    outer loop
      vertex -0.9 -7.44115 0
      vertex 0 -7.2 0
      vertex -0.9 -7.44115 8
    endloop
  endfacet
  facet normal -0.258819 -0.965926 0
    outer loop
      vertex 0.9 -7.44115 0
      vertex 0.9 -7.44115 8
      vertex 0 -7.2 8
    endloop
  endfacet
  facet normal -0.258819 -0.965926 0
    outer loop
      vertex 0 -7.2 0
      vertex 0.9 -7.44115 0
      vertex 0 -7.2 8
    endloop
  endfacet
  facet normal -0.707107 -0.707107 0
    outer loop
      vertex 1.55885 -8.1 0
      vertex 1.55885 -8.1 8
      vertex 0.9 -7.44115 8
    endloop
  endfacet
  facet normal -0.707107 -0.707107 0
    outer loop
      vertex 0.9 -7.44115 0
      vertex 1.55885 -8.1 0
      vertex 0.9 -7.44115 8
    endloop
  endfacet
  facet normal -0.965926 -0.258819 0
    outer loop
      vertex 1.8 -9 8
      vertex 1.55885 -8.1 8
      vertex 1.8 -9 0
    endloop
  endfacet
  facet normal -0.965926 -0.258819 0
    outer loop
      vertex 1.8 -9 0
      vertex 1.55885 -8.1 8
      vertex 1.55885 -8.1 0
    endloop
  endfacet
  facet normal -0.965926 0.258819 0
    outer loop
      vertex 1.8 -9 8
      vertex 1.8 -9 0
      vertex 1.55885 -9.9 8
    endloop
  endfacet
  facet normal -0.965926 0.258819 0
    outer loop
      vertex 1.55885 -9.9 8
      vertex 1.8 -9 0
      vertex 1.55885 -9.9 0
    endloop
  endfacet
  facet normal -0.707107 0.707107 0
    outer loop
      vertex 1.55885 -9.9 8
      vertex 1.55885 -9.9 0
      vertex 0.9 -10.5588 8
    endloop
  endfacet
  facet normal -0.707107 0.707107 0
    outer loop
      vertex 0.9 -10.5588 8
      vertex 1.55885 -9.9 0
      vertex 0.9 -10.5588 0
    endloop
  endfacet
  facet normal -0.258819 0.965926 0
    outer loop
      vertex 0.9 -10.5588 8
      vertex 0.9 -10.5588 0
      vertex 0 -10.8 8
    endloop
  endfacet
  facet normal -0.258819 0.965926 0
    outer loop
      vertex 0 -10.8 8
      vertex 0.9 -10.5588 0
      vertex 0 -10.8 0
    endloop
  endfacet
  facet normal 0.258819 0.965926 0
    outer loop
      vertex 0 -10.8 8
      vertex 0 -10.8 0
      vertex -0.9 -10.5588 8
    endloop
  endfacet
  facet normal 0.258819 0.965926 0
    outer loop
      vertex -0.9 -10.5588 8
      vertex 0 -10.8 0
      vertex -0.9 -10.5588 0
    endloop
  endfacet
  facet normal 0.707107 0.707107 0
    outer loop
      vertex -0.9 -10.5588 8
      vertex -0.9 -10.5588 0
      vertex -1.55885 -9.9 8
    endloop
  endfacet
  facet normal 0.707107 0.707107 0
    outer loop
      vertex -1.55885 -9.9 8
      vertex -0.9 -10.5588 0
      vertex -1.55885 -9.9 0
    endloop
  endfacet
  facet normal -2.67645e-17 -0.992709 0.120537
    outer loop
      vertex 7.5 4.125 0
      vertex 7.5 4.125 7.49401e-16
      vertex 4.125 4.125 0
    endloop
  endfacet
  facet normal 0.980785 0.195091 0
    outer loop
      vertex 7.5 10.1679 0
      vertex 7.34104 10.967 0
      vertex 7.34104 10.967 8
    endloop
  endfacet
  facet normal 0.980785 0.195091 0
    outer loop
      vertex 7.5 10.1679 8
      vertex 7.5 10.1679 0
      vertex 7.34104 10.967 8
    endloop
  endfacet
  facet normal 0.94693 0.32144 0
    outer loop
      vertex 7.34104 10.967 0
      vertex 7.02148 11.9084 0
      vertex 7.02148 11.9084 8
    endloop
  endfacet
  facet normal 0.94693 0.32144 0
    outer loop
      vertex 7.34104 10.967 8
      vertex 7.34104 10.967 0
      vertex 7.02148 11.9084 8
    endloop
  endfacet
  facet normal 0.896873 0.442288 0
    outer loop
      vertex 7.02148 11.9084 0
      vertex 6.58179 12.8 0
      vertex 6.58179 12.8 8
    endloop
  endfacet
  facet normal 0.896873 0.442288 0
    outer loop
      vertex 7.02148 11.9084 8
      vertex 7.02148 11.9084 0
      vertex 6.58179 12.8 8
    endloop
  endfacet
  facet normal 0.83147 0.55557 0
    outer loop
      vertex 6.58179 12.8 0
      vertex 6.02949 13.6266 0
      vertex 6.02949 13.6266 8
    endloop
  endfacet
  facet normal 0.83147 0.55557 0
    outer loop
      vertex 6.58179 12.8 8
      vertex 6.58179 12.8 0
      vertex 6.02949 13.6266 8
    endloop
  endfacet
  facet normal 0.75184 0.659345 0
    outer loop
      vertex 6.02949 13.6266 0
      vertex 5.37401 14.374 0
      vertex 5.37401 14.374 8
    endloop
  endfacet
  facet normal 0.75184 0.659345 0
    outer loop
      vertex 6.02949 13.6266 8
      vertex 6.02949 13.6266 0
      vertex 5.37401 14.374 8
    endloop
  endfacet
  facet normal 0.659345 0.75184 0
    outer loop
      vertex 4.62659 15.0295 0
      vertex 4.62659 15.0295 8
      vertex 5.37401 14.374 0
    endloop
  endfacet
  facet normal 0.659345 0.75184 0
    outer loop
      vertex 5.37401 14.374 0
      vertex 4.62659 15.0295 8
      vertex 5.37401 14.374 8
    endloop
  endfacet
  facet normal 0.55557 0.83147 0
    outer loop
      vertex 3.8 15.5818 0
      vertex 3.8 15.5818 8
      vertex 4.62659 15.0295 0
    endloop
  endfacet
  facet normal 0.55557 0.83147 0
    outer loop
      vertex 4.62659 15.0295 0
      vertex 3.8 15.5818 8
      vertex 4.62659 15.0295 8
    endloop
  endfacet
  facet normal 0.442288 0.896873 0
    outer loop
      vertex 2.90839 16.0215 0
      vertex 2.90839 16.0215 8
      vertex 3.8 15.5818 0
    endloop
  endfacet
  facet normal 0.442288 0.896873 0
    outer loop
      vertex 3.8 15.5818 0
      vertex 2.90839 16.0215 8
      vertex 3.8 15.5818 8
    endloop
  endfacet
  facet normal 0.32144 0.94693 0
    outer loop
      vertex 1.96703 16.341 0
      vertex 1.96703 16.341 8
      vertex 2.90839 16.0215 0
    endloop
  endfacet
  facet normal 0.32144 0.94693 0
    outer loop
      vertex 2.90839 16.0215 0
      vertex 1.96703 16.341 8
      vertex 2.90839 16.0215 8
    endloop
  endfacet
  facet normal 0.195091 0.980785 0
    outer loop
      vertex 1.16786 16.5 0
      vertex 1.16786 16.5 8
      vertex 1.96703 16.341 0
    endloop
  endfacet
  facet normal 0.195091 0.980785 0
    outer loop
      vertex 1.96703 16.341 0
      vertex 1.16786 16.5 8
      vertex 1.96703 16.341 8
    endloop
  endfacet
  facet normal 0 1 0
    outer loop
      vertex -1.16786 16.5 0
      vertex -1.16786 16.5 8
      vertex 1.16786 16.5 0
    endloop
  endfacet
  facet normal 0 1 0
    outer loop
      vertex 1.16786 16.5 0
      vertex -1.16786 16.5 8
      vertex 1.16786 16.5 8
    endloop
  endfacet
  facet normal -0.195091 0.980785 0
    outer loop
      vertex -1.96702 16.341 0
      vertex -1.96702 16.341 8
      vertex -1.16786 16.5 0
    endloop
  endfacet
  facet normal -0.195091 0.980785 0
    outer loop
      vertex -1.16786 16.5 0
      vertex -1.96702 16.341 8
      vertex -1.16786 16.5 8
    endloop
  endfacet
  facet normal -0.32144 0.94693 0
    outer loop
      vertex -2.90839 16.0215 0
      vertex -2.90839 16.0215 8
      vertex -1.96702 16.341 0
    endloop
  endfacet
  facet normal -0.32144 0.94693 0
    outer loop
      vertex -1.96702 16.341 0
      vertex -2.90839 16.0215 8
      vertex -1.96702 16.341 8
    endloop
  endfacet
  facet normal -0.442288 0.896873 0
    outer loop
      vertex -3.8 15.5818 0
      vertex -3.8 15.5818 8
      vertex -2.90839 16.0215 0
    endloop
  endfacet
  facet normal -0.442288 0.896873 0
    outer loop
      vertex -2.90839 16.0215 0
      vertex -3.8 15.5818 8
      vertex -2.90839 16.0215 8
    endloop
  endfacet
  facet normal -0.55557 0.83147 0
    outer loop
      vertex -4.62659 15.0295 0
      vertex -4.62659 15.0295 8
      vertex -3.8 15.5818 0
    endloop
  endfacet
  facet normal -0.55557 0.83147 0
    outer loop
      vertex -3.8 15.5818 0
      vertex -4.62659 15.0295 8
      vertex -3.8 15.5818 8
    endloop
  endfacet
  facet normal -0.659345 0.75184 0
    outer loop
      vertex -5.37401 14.374 0
      vertex -5.37401 14.374 8
      vertex -4.62659 15.0295 0
    endloop
  endfacet
  facet normal -0.659345 0.75184 0
    outer loop
      vertex -4.62659 15.0295 0
      vertex -5.37401 14.374 8
      vertex -4.62659 15.0295 8
    endloop
  endfacet
  facet normal -0.75184 0.659345 0
    outer loop
      vertex -6.02948 13.6266 0
      vertex -6.02948 13.6266 8
      vertex -5.37401 14.374 0
    endloop
  endfacet
  facet normal -0.75184 0.659345 0
    outer loop
      vertex -5.37401 14.374 0
      vertex -6.02948 13.6266 8
      vertex -5.37401 14.374 8
    endloop
  endfacet
  facet normal -0.83147 0.55557 0
    outer loop
      vertex -6.58179 12.8 0
      vertex -6.58179 12.8 8
      vertex -6.02948 13.6266 0
    endloop
  endfacet
  facet normal -0.83147 0.55557 0
    outer loop
      vertex -6.02948 13.6266 0
      vertex -6.58179 12.8 8
      vertex -6.02948 13.6266 8
    endloop
  endfacet
  facet normal -0.896873 0.442288 0
    outer loop
      vertex -7.02148 11.9084 0
      vertex -7.02148 11.9084 8
      vertex -6.58179 12.8 0
    endloop
  endfacet
  facet normal -0.896873 0.442288 0
    outer loop
      vertex -6.58179 12.8 0
      vertex -7.02148 11.9084 8
      vertex -6.58179 12.8 8
    endloop
  endfacet
  facet normal -0.94693 0.32144 0
    outer loop
      vertex -7.34104 10.967 0
      vertex -7.34104 10.967 8
      vertex -7.02148 11.9084 0
    endloop
  endfacet
  facet normal -0.94693 0.32144 0
    outer loop
      vertex -7.02148 11.9084 0
      vertex -7.34104 10.967 8
      vertex -7.02148 11.9084 8
    endloop
  endfacet
  facet normal 0.965926 -0.258819 0
    outer loop
      vertex -1.55885 9.9 0
      vertex -1.55885 9.9 8
      vertex -1.8 9 8
    endloop
  endfacet
  facet normal 0.965926 -0.258819 0
    outer loop
      vertex -1.8 9 0
      vertex -1.55885 9.9 0
      vertex -1.8 9 8
    endloop
  endfacet
  facet normal 0.965926 0.258819 0
    outer loop
      vertex -1.8 9 8
      vertex -1.55885 8.1 8
      vertex -1.55885 8.1 0
    endloop
  endfacet
  facet normal 0.965926 0.258819 0
    outer loop
      vertex -1.8 9 0
      vertex -1.8 9 8
      vertex -1.55885 8.1 0
    endloop
  endfacet
  facet normal 0.707107 -0.707107 0
    outer loop
      vertex -0.9 10.5588 0
      vertex -0.9 10.5588 8
      vertex -1.55885 9.9 8
    endloop
  endfacet
  facet normal 0.707107 -0.707107 0
    outer loop
      vertex -1.55885 9.9 0
      vertex -0.9 10.5588 0
      vertex -1.55885 9.9 8
    endloop
  endfacet
  facet normal 0.258819 -0.965926 0
    outer loop
      vertex 0 10.8 0
      vertex 0 10.8 8
      vertex -0.9 10.5588 8
    endloop
  endfacet
  facet normal 0.258819 -0.965926 0
    outer loop
      vertex -0.9 10.5588 0
      vertex 0 10.8 0
      vertex -0.9 10.5588 8
    endloop
  endfacet
  facet normal -0.258819 -0.965926 0
    outer loop
      vertex 0.9 10.5588 0
      vertex 0.9 10.5588 8
      vertex 0 10.8 8
    endloop
  endfacet
  facet normal -0.258819 -0.965926 0
    outer loop
      vertex 0 10.8 0
      vertex 0.9 10.5588 0
      vertex 0 10.8 8
    endloop
  endfacet
  facet normal -0.707107 -0.707107 0
    outer loop
      vertex 1.55885 9.9 0
      vertex 1.55885 9.9 8
      vertex 0.9 10.5588 8
    endloop
  endfacet
  facet normal -0.707107 -0.707107 0
    outer loop
      vertex 0.9 10.5588 0
      vertex 1.55885 9.9 0
      vertex 0.9 10.5588 8
    endloop
  endfacet
  facet normal -0.965926 -0.258819 0
    outer loop
      vertex 1.8 9 8
      vertex 1.55885 9.9 8
      vertex 1.8 9 0
    endloop
  endfacet
  facet normal -0.965926 -0.258819 0
    outer loop
      vertex 1.8 9 0
      vertex 1.55885 9.9 8
      vertex 1.55885 9.9 0
    endloop
  endfacet
  facet normal -0.965926 0.258819 0
    outer loop
      vertex 1.8 9 8
      vertex 1.8 9 0
      vertex 1.55885 8.1 8
    endloop
  endfacet
  facet normal -0.965926 0.258819 0
    outer loop
      vertex 1.55885 8.1 8
      vertex 1.8 9 0
      vertex 1.55885 8.1 0
    endloop
  endfacet
  facet normal -0.707107 0.707107 0
    outer loop
      vertex 1.55885 8.1 8
      vertex 1.55885 8.1 0
      vertex 0.9 7.44115 8
    endloop
  endfacet
  facet normal -0.707107 0.707107 0
    outer loop
      vertex 0.9 7.44115 8
      vertex 1.55885 8.1 0
      vertex 0.9 7.44115 0
    endloop
  endfacet
  facet normal -0.258819 0.965926 0
    outer loop
      vertex 0.9 7.44115 8
      vertex 0.9 7.44115 0
      vertex 0 7.2 8
    endloop
  endfacet
  facet normal -0.258819 0.965926 0
    outer loop
      vertex 0 7.2 8
      vertex 0.9 7.44115 0
      vertex 0 7.2 0
    endloop
  endfacet
  facet normal 0.258819 0.965926 0
    outer loop
      vertex 0 7.2 8
      vertex 0 7.2 0
      vertex -0.9 7.44115 8
    endloop
  endfacet
  facet normal 0.258819 0.965926 0
    outer loop
      vertex -0.9 7.44115 8
      vertex 0 7.2 0
      vertex -0.9 7.44115 0
    endloop
  endfacet
  facet normal 0.707107 0.707107 0
    outer loop
      vertex -0.9 7.44115 8
      vertex -0.9 7.44115 0
      vertex -1.55885 8.1 8
    endloop
  endfacet
  facet normal 0.707107 0.707107 0
    outer loop
      vertex -1.55885 8.1 8
      vertex -0.9 7.44115 0
      vertex -1.55885 8.1 0
    endloop
  endfacet
  facet normal -1.40052e-16 0.775996 0.630738
    outer loop
      vertex 2.99954 6.80173 8.79662
      vertex 7.5 6.80173 8.79662
      vertex 3.2476 7.125 8.3989
    endloop
  endfacet
  facet normal -1.40052e-16 0.775996 0.630738
    outer loop
      vertex 3.2476 7.125 8.3989
      vertex 7.5 6.80173 8.79662
      vertex 7.5 7.44923 8
    endloop
  endfacet
  facet normal -1.40052e-16 0.775996 0.630738
    outer loop
      vertex 3.2476 7.125 8.3989
      vertex 7.5 7.44923 8
      vertex 3.3819 7.44923 8
    endloop
  endfacet
  facet normal 0 0 1
    outer loop
      vertex -3.62222 9.97057 8
      vertex -3.75 9 8
      vertex -3.62222 8.02943 8
    endloop
  endfacet
  facet normal 0 0 1
    outer loop
      vertex -3.2476 7.125 8
      vertex -3.62222 9.97057 8
      vertex -3.3819 7.44923 8
    endloop
  endfacet
  facet normal 0 0 1
    outer loop
      vertex -3.3819 7.44923 8
      vertex -3.62222 9.97057 8
      vertex -3.62222 8.02943 8
    endloop
  endfacet
  facet normal 0 0 1
    outer loop
      vertex -2.65165 6.34835 8
      vertex -3.62222 9.97057 8
      vertex -3.2476 7.125 8
    endloop
  endfacet
  facet normal 0 0 1
    outer loop
      vertex -1.875 5.7524 8
      vertex -3.62222 9.97057 8
      vertex -2.65165 6.34835 8
    endloop
  endfacet
  facet normal 0 0 1
    outer loop
      vertex -0.970571 5.37778 8
      vertex -3.62222 9.97057 8
      vertex -1.875 5.7524 8
    endloop
  endfacet
  facet normal 0 0 1
    outer loop
      vertex 0 5.25 8
      vertex -3.62222 9.97057 8
      vertex -0.970571 5.37778 8
    endloop
  endfacet
  facet normal 0 0 1
    outer loop
      vertex 0.970571 5.37778 8
      vertex -3.62222 9.97057 8
      vertex 0 5.25 8
    endloop
  endfacet
  facet normal 0 0 1
    outer loop
      vertex -1.55885 8.1 8
      vertex -3.62222 9.97057 8
      vertex 0.970571 5.37778 8
    endloop
  endfacet
  facet normal 0 0 1
    outer loop
      vertex -1.55885 9.9 8
      vertex -0.9 10.5588 8
      vertex -3.62222 9.97057 8
    endloop
  endfacet
  facet normal 0 0 1
    outer loop
      vertex 1.55885 9.9 8
      vertex 1.8 9 8
      vertex 3.75 9 8
    endloop
  endfacet
  facet normal 0 0 1
    outer loop
      vertex 0.9 10.5588 8
      vertex 1.55885 9.9 8
      vertex 3.62222 9.97057 8
    endloop
  endfacet
  facet normal 0 0 1
    outer loop
      vertex 1.875 12.2476 8
      vertex -3.62222 9.97057 8
      vertex 2.65165 11.6517 8
    endloop
  endfacet
  facet normal 0 0 1
    outer loop
      vertex 0.970571 12.6222 8
      vertex -3.62222 9.97057 8
      vertex 1.875 12.2476 8
    endloop
  endfacet
  facet normal 0 0 1
    outer loop
      vertex 0 12.75 8
      vertex -3.62222 9.97057 8
      vertex 0.970571 12.6222 8
    endloop
  endfacet
  facet normal 0 0 1
    outer loop
      vertex -0.970571 12.6222 8
      vertex -3.62222 9.97057 8
      vertex 0 12.75 8
    endloop
  endfacet
  facet normal 0 0 1
    outer loop
      vertex -1.875 12.2476 8
      vertex -3.62222 9.97057 8
      vertex -0.970571 12.6222 8
    endloop
  endfacet
  facet normal 0 0 1
    outer loop
      vertex -2.65165 11.6517 8
      vertex -3.62222 9.97057 8
      vertex -1.875 12.2476 8
    endloop
  endfacet
  facet normal 0 0 1
    outer loop
      vertex -3.2476 10.875 8
      vertex -3.62222 9.97057 8
      vertex -2.65165 11.6517 8
    endloop
  endfacet
  facet normal 0 0 1
    outer loop
      vertex -0.9 7.44115 8
      vertex -1.55885 8.1 8
      vertex 0.970571 5.37778 8
    endloop
  endfacet
  facet normal 0 0 1
    outer loop
      vertex 0 7.2 8
      vertex -0.9 7.44115 8
      vertex 1.875 5.7524 8
    endloop
  endfacet
  facet normal 0 0 1
    outer loop
      vertex 1.8 9 8
      vertex 3.3819 7.44923 8
      vertex 3.62222 8.02943 8
    endloop
  endfacet
  facet normal 0 0 1
    outer loop
      vertex 2.65165 11.6517 8
      vertex -3.62222 9.97057 8
      vertex -0.9 10.5588 8
    endloop
  endfacet
  facet normal 0 0 1
    outer loop
      vertex 2.65165 11.6517 8
      vertex 0 10.8 8
      vertex 3.2476 10.875 8
    endloop
  endfacet
  facet normal 0 0 1
    outer loop
      vertex 2.65165 11.6517 8
      vertex -0.9 10.5588 8
      vertex 0 10.8 8
    endloop
  endfacet
  facet normal 0 0 1
    outer loop
      vertex 3.2476 10.875 8
      vertex 0.9 10.5588 8
      vertex 3.62222 9.97057 8
    endloop
  endfacet
  facet normal 0 0 1
    outer loop
      vertex 0 10.8 8
      vertex 0.9 10.5588 8
      vertex 3.2476 10.875 8
    endloop
  endfacet
  facet normal 0 0 1
    outer loop
      vertex 3.62222 9.97057 8
      vertex 1.55885 9.9 8
      vertex 3.75 9 8
    endloop
  endfacet
  facet normal 0 0 1
    outer loop
      vertex 3.75 9 8
      vertex 1.8 9 8
      vertex 3.62222 8.02943 8
    endloop
  endfacet
  facet normal 0 0 1
    outer loop
      vertex 1.8 9 8
      vertex 1.55885 8.1 8
      vertex 3.3819 7.44923 8
    endloop
  endfacet
  facet normal 0 0 1
    outer loop
      vertex 3.3819 7.44923 8
      vertex 1.55885 8.1 8
      vertex 3.2476 7.125 8
    endloop
  endfacet
  facet normal 0 0 1
    outer loop
      vertex 3.2476 7.125 8
      vertex 0.9 7.44115 8
      vertex 2.65165 6.34835 8
    endloop
  endfacet
  facet normal 0 0 1
    outer loop
      vertex 2.65165 6.34835 8
      vertex 0 7.2 8
      vertex 1.875 5.7524 8
    endloop
  endfacet
  facet normal 0 0 1
    outer loop
      vertex 1.55885 8.1 8
      vertex 0.9 7.44115 8
      vertex 3.2476 7.125 8
    endloop
  endfacet
  facet normal 0 0 1
    outer loop
      vertex 1.875 5.7524 8
      vertex -0.9 7.44115 8
      vertex 0.970571 5.37778 8
    endloop
  endfacet
  facet normal 0 0 1
    outer loop
      vertex -1.55885 8.1 8
      vertex -1.8 9 8
      vertex -3.62222 9.97057 8
    endloop
  endfacet
  facet normal 0 0 1
    outer loop
      vertex 0.9 7.44115 8
      vertex 0 7.2 8
      vertex 2.65165 6.34835 8
    endloop
  endfacet
  facet normal 0 0 1
    outer loop
      vertex -1.8 9 8
      vertex -1.55885 9.9 8
      vertex -3.62222 9.97057 8
    endloop
  endfacet
  facet normal -0.923879 0.382684 0
    outer loop
      vertex 3.2476 7.125 8.3989
      vertex 3.3819 7.44923 8
      vertex 3.2476 7.125 8
    endloop
  endfacet
  facet normal 0.923879 0.382684 0
    outer loop
      vertex -3.2476 7.125 8.3989
      vertex -3.2476 7.125 8
      vertex -3.3819 7.44923 8
    endloop
  endfacet
  facet normal 0.793353 0.608762 0
    outer loop
      vertex -3.2476 7.125 8.3989
      vertex -2.99954 6.80173 8.79662
      vertex -2.65165 6.34835 9.25314
    endloop
  endfacet
  facet normal 0.793353 0.608762 0
    outer loop
      vertex -3.2476 7.125 8
      vertex -3.2476 7.125 8.3989
      vertex -2.65165 6.34835 8
    endloop
  endfacet
  facet normal 0.793353 0.608762 0
    outer loop
      vertex -2.65165 6.34835 8
      vertex -3.2476 7.125 8.3989
      vertex -2.65165 6.34835 9.25314
    endloop
  endfacet
  facet normal 0.608762 0.793353 0
    outer loop
      vertex -2.24725 6.03804 9.56559
      vertex -1.875 5.7524 9.79928
      vertex -2.65165 6.34835 9.25314
    endloop
  endfacet
  facet normal 0.608762 0.793353 0
    outer loop
      vertex -2.65165 6.34835 9.25314
      vertex -1.875 5.7524 9.79928
      vertex -1.875 5.7524 8
    endloop
  endfacet
  facet normal 0.608762 0.793353 0
    outer loop
      vertex -2.65165 6.34835 9.25314
      vertex -1.875 5.7524 8
      vertex -2.65165 6.34835 8
    endloop
  endfacet
  facet normal 0.382684 0.923879 0
    outer loop
      vertex -0.970571 5.37778 10.1058
      vertex -0.970571 5.37778 8
      vertex -1.875 5.7524 9.79928
    endloop
  endfacet
  facet normal 0.382684 0.923879 0
    outer loop
      vertex -1.875 5.7524 9.79928
      vertex -0.970571 5.37778 8
      vertex -1.875 5.7524 8
    endloop
  endfacet
  facet normal 0.130526 0.991445 0
    outer loop
      vertex 0 5.25 10.2103
      vertex 0 5.25 8
      vertex -0.970571 5.37778 10.1058
    endloop
  endfacet
  facet normal 0.130526 0.991445 0
    outer loop
      vertex -0.970571 5.37778 10.1058
      vertex 0 5.25 8
      vertex -0.970571 5.37778 8
    endloop
  endfacet
  facet normal -0.130526 0.991445 0
    outer loop
      vertex 0.970571 5.37778 10.1058
      vertex 0.970571 5.37778 8
      vertex 0 5.25 10.2103
    endloop
  endfacet
  facet normal -0.130526 0.991445 0
    outer loop
      vertex 0 5.25 10.2103
      vertex 0.970571 5.37778 8
      vertex 0 5.25 8
    endloop
  endfacet
  facet normal -0.382684 0.923879 0
    outer loop
      vertex 1.875 5.7524 9.79928
      vertex 1.875 5.7524 8
      vertex 0.970571 5.37778 10.1058
    endloop
  endfacet
  facet normal -0.382684 0.923879 0
    outer loop
      vertex 0.970571 5.37778 10.1058
      vertex 1.875 5.7524 8
      vertex 0.970571 5.37778 8
    endloop
  endfacet
  facet normal -0.608762 0.793353 0
    outer loop
      vertex 2.24725 6.03804 9.56559
      vertex 2.65165 6.34835 9.25314
      vertex 1.875 5.7524 9.79928
    endloop
  endfacet
  facet normal -0.608762 0.793353 0
    outer loop
      vertex 1.875 5.7524 9.79928
      vertex 2.65165 6.34835 9.25314
      vertex 2.65165 6.34835 8
    endloop
  endfacet
  facet normal -0.608762 0.793353 0
    outer loop
      vertex 1.875 5.7524 9.79928
      vertex 2.65165 6.34835 8
      vertex 1.875 5.7524 8
    endloop
  endfacet
  facet normal -1.56467e-16 0.70954 0.704665
    outer loop
      vertex 2.24725 6.03804 9.56559
      vertex 7.5 6.03804 9.56559
      vertex 2.65165 6.34835 9.25314
    endloop
  endfacet
  facet normal -1.56467e-16 0.70954 0.704665
    outer loop
      vertex 2.65165 6.34835 9.25314
      vertex 7.5 6.03804 9.56559
      vertex 7.5 6.80173 8.79662
    endloop
  endfacet
  facet normal -1.56467e-16 0.70954 0.704665
    outer loop
      vertex 2.65165 6.34835 9.25314
      vertex 7.5 6.80173 8.79662
      vertex 2.99954 6.80173 8.79662
    endloop
  endfacet
  facet normal -1.56467e-16 -0.70954 0.704665
    outer loop
      vertex 7.5 -6.03804 9.56559
      vertex 2.24725 -6.03804 9.56559
      vertex 2.65165 -6.34835 9.25314
    endloop
  endfacet
  facet normal -1.56467e-16 -0.70954 0.704665
    outer loop
      vertex 2.99954 -6.80173 8.79662
      vertex 7.5 -6.03804 9.56559
      vertex 2.65165 -6.34835 9.25314
    endloop
  endfacet
  facet normal -1.56467e-16 -0.70954 0.704665
    outer loop
      vertex 2.99954 -6.80173 8.79662
      vertex 7.5 -6.80173 8.79662
      vertex 7.5 -6.03804 9.56559
    endloop
  endfacet
  facet normal -0.608762 -0.793353 0
    outer loop
      vertex 2.65165 -6.34835 8
      vertex 2.65165 -6.34835 9.25314
      vertex 2.24725 -6.03804 9.56559
    endloop
  endfacet
  facet normal -0.608762 -0.793353 0
    outer loop
      vertex 1.875 -5.7524 8
      vertex 2.65165 -6.34835 8
      vertex 1.875 -5.7524 9.79928
    endloop
  endfacet
  facet normal -0.608762 -0.793353 0
    outer loop
      vertex 1.875 -5.7524 9.79928
      vertex 2.65165 -6.34835 8
      vertex 2.24725 -6.03804 9.56559
    endloop
  endfacet
  facet normal -0.382684 -0.923879 0
    outer loop
      vertex 1.875 -5.7524 8
      vertex 1.875 -5.7524 9.79928
      vertex 0.970571 -5.37778 10.1058
    endloop
  endfacet
  facet normal -0.382684 -0.923879 0
    outer loop
      vertex 0.970571 -5.37778 8
      vertex 1.875 -5.7524 8
      vertex 0.970571 -5.37778 10.1058
    endloop
  endfacet
  facet normal -0.130526 -0.991445 0
    outer loop
      vertex 0.970571 -5.37778 8
      vertex 0.970571 -5.37778 10.1058
      vertex 0 -5.25 10.2103
    endloop
  endfacet
  facet normal -0.130526 -0.991445 0
    outer loop
      vertex 0 -5.25 8
      vertex 0.970571 -5.37778 8
      vertex 0 -5.25 10.2103
    endloop
  endfacet
  facet normal 0.130526 -0.991445 0
    outer loop
      vertex 0 -5.25 8
      vertex 0 -5.25 10.2103
      vertex -0.970571 -5.37778 10.1058
    endloop
  endfacet
  facet normal 0.130526 -0.991445 0
    outer loop
      vertex -0.970571 -5.37778 8
      vertex 0 -5.25 8
      vertex -0.970571 -5.37778 10.1058
    endloop
  endfacet
  facet normal 0.382684 -0.923879 0
    outer loop
      vertex -0.970571 -5.37778 8
      vertex -0.970571 -5.37778 10.1058
      vertex -1.875 -5.7524 9.79928
    endloop
  endfacet
  facet normal 0.382684 -0.923879 0
    outer loop
      vertex -1.875 -5.7524 8
      vertex -0.970571 -5.37778 8
      vertex -1.875 -5.7524 9.79928
    endloop
  endfacet
  facet normal 0.608762 -0.793353 0
    outer loop
      vertex -1.875 -5.7524 8
      vertex -1.875 -5.7524 9.79928
      vertex -2.24725 -6.03804 9.56559
    endloop
  endfacet
  facet normal 0.608762 -0.793353 0
    outer loop
      vertex -2.65165 -6.34835 8
      vertex -1.875 -5.7524 8
      vertex -2.65165 -6.34835 9.25314
    endloop
  endfacet
  facet normal 0.608762 -0.793353 0
    outer loop
      vertex -2.65165 -6.34835 9.25314
      vertex -1.875 -5.7524 8
      vertex -2.24725 -6.03804 9.56559
    endloop
  endfacet
  facet normal 0.793353 -0.608762 0
    outer loop
      vertex -2.65165 -6.34835 8
      vertex -2.65165 -6.34835 9.25314
      vertex -2.99954 -6.80173 8.79662
    endloop
  endfacet
  facet normal 0.793353 -0.608762 0
    outer loop
      vertex -3.2476 -7.125 8
      vertex -2.65165 -6.34835 8
      vertex -3.2476 -7.125 8.3989
    endloop
  endfacet
  facet normal 0.793353 -0.608762 0
    outer loop
      vertex -3.2476 -7.125 8.3989
      vertex -2.65165 -6.34835 8
      vertex -2.99954 -6.80173 8.79662
    endloop
  endfacet
  facet normal 0.923879 -0.382684 0
    outer loop
      vertex -3.2476 -7.125 8
      vertex -3.2476 -7.125 8.3989
      vertex -3.3819 -7.44923 8
    endloop
  endfacet
  facet normal 0 0 1
    outer loop
      vertex -3.62222 -8.02943 8
      vertex -3.75 -9 8
      vertex -3.62222 -9.97057 8
    endloop
  endfacet
  facet normal 0 0 1
    outer loop
      vertex -2.65165 -11.6517 8
      vertex -3.62222 -8.02943 8
      vertex -3.2476 -10.875 8
    endloop
  endfacet
  facet normal 0 0 1
    outer loop
      vertex -3.2476 -10.875 8
      vertex -3.62222 -8.02943 8
      vertex -3.62222 -9.97057 8
    endloop
  endfacet
  facet normal 0 0 1
    outer loop
      vertex -1.875 -12.2476 8
      vertex -3.62222 -8.02943 8
      vertex -2.65165 -11.6517 8
    endloop
  endfacet
  facet normal 0 0 1
    outer loop
      vertex -0.970571 -12.6222 8
      vertex -3.62222 -8.02943 8
      vertex -1.875 -12.2476 8
    endloop
  endfacet
  facet normal 0 0 1
    outer loop
      vertex 0 -12.75 8
      vertex -3.62222 -8.02943 8
      vertex -0.970571 -12.6222 8
    endloop
  endfacet
  facet normal 0 0 1
    outer loop
      vertex 0.970571 -12.6222 8
      vertex -3.62222 -8.02943 8
      vertex 0 -12.75 8
    endloop
  endfacet
  facet normal 0 0 1
    outer loop
      vertex -1.55885 -9.9 8
      vertex -3.62222 -8.02943 8
      vertex 0.970571 -12.6222 8
    endloop
  endfacet
  facet normal 0 0 1
    outer loop
      vertex -1.55885 -8.1 8
      vertex -0.9 -7.44115 8
      vertex -3.62222 -8.02943 8
    endloop
  endfacet
  facet normal 0 0 1
    outer loop
      vertex 1.55885 -9.9 8
      vertex 0.9 -10.5588 8
      vertex 3.2476 -10.875 8
    endloop
  endfacet
  facet normal 0 0 1
    outer loop
      vertex 0.9 -7.44115 8
      vertex 1.55885 -8.1 8
      vertex 3.62222 -8.02943 8
    endloop
  endfacet
  facet normal 0 0 1
    outer loop
      vertex 0.9 -7.44115 8
      vertex 3.62222 -8.02943 8
      vertex 3.3819 -7.44923 8
    endloop
  endfacet
  facet normal 0 0 1
    outer loop
      vertex 1.875 -5.7524 8
      vertex -3.62222 -8.02943 8
      vertex 2.65165 -6.34835 8
    endloop
  endfacet
  facet normal 0 0 1
    outer loop
      vertex 0.970571 -5.37778 8
      vertex -3.62222 -8.02943 8
      vertex 1.875 -5.7524 8
    endloop
  endfacet
  facet normal 0 0 1
    outer loop
      vertex 0 -5.25 8
      vertex -3.62222 -8.02943 8
      vertex 0.970571 -5.37778 8
    endloop
  endfacet
  facet normal 0 0 1
    outer loop
      vertex -0.970571 -5.37778 8
      vertex -3.62222 -8.02943 8
      vertex 0 -5.25 8
    endloop
  endfacet
  facet normal 0 0 1
    outer loop
      vertex -1.875 -5.7524 8
      vertex -3.62222 -8.02943 8
      vertex -0.970571 -5.37778 8
    endloop
  endfacet
  facet normal 0 0 1
    outer loop
      vertex -2.65165 -6.34835 8
      vertex -3.62222 -8.02943 8
      vertex -1.875 -5.7524 8
    endloop
  endfacet
  facet normal 0 0 1
    outer loop
      vertex -3.3819 -7.44923 8
      vertex -3.62222 -8.02943 8
      vertex -2.65165 -6.34835 8
    endloop
  endfacet
  facet normal 0 0 1
    outer loop
      vertex -3.2476 -7.125 8
      vertex -3.3819 -7.44923 8
      vertex -2.65165 -6.34835 8
    endloop
  endfacet
  facet normal 0 0 1
    outer loop
      vertex -0.9 -10.5588 8
      vertex -1.55885 -9.9 8
      vertex 0.970571 -12.6222 8
    endloop
  endfacet
  facet normal 0 0 1
    outer loop
      vertex 0 -10.8 8
      vertex -0.9 -10.5588 8
      vertex 1.875 -12.2476 8
    endloop
  endfacet
  facet normal 0 0 1
    outer loop
      vertex 1.8 -9 8
      vertex 1.55885 -9.9 8
      vertex 3.62222 -9.97057 8
    endloop
  endfacet
  facet normal 0 0 1
    outer loop
      vertex 2.65165 -6.34835 8
      vertex -3.62222 -8.02943 8
      vertex -0.9 -7.44115 8
    endloop
  endfacet
  facet normal 0 0 1
    outer loop
      vertex 2.65165 -6.34835 8
      vertex 0 -7.2 8
      vertex 3.2476 -7.125 8
    endloop
  endfacet
  facet normal 0 0 1
    outer loop
      vertex 2.65165 -6.34835 8
      vertex -0.9 -7.44115 8
      vertex 0 -7.2 8
    endloop
  endfacet
  facet normal 0 0 1
    outer loop
      vertex 3.2476 -7.125 8
      vertex 0.9 -7.44115 8
      vertex 3.3819 -7.44923 8
    endloop
  endfacet
  facet normal 0 0 1
    outer loop
      vertex 0 -7.2 8
      vertex 0.9 -7.44115 8
      vertex 3.2476 -7.125 8
    endloop
  endfacet
  facet normal 0 0 1
    outer loop
      vertex 3.62222 -8.02943 8
      vertex 1.55885 -8.1 8
      vertex 3.75 -9 8
    endloop
  endfacet
  facet normal 0 0 1
    outer loop
      vertex 3.75 -9 8
      vertex 1.8 -9 8
      vertex 3.62222 -9.97057 8
    endloop
  endfacet
  facet normal 0 0 1
    outer loop
      vertex 3.62222 -9.97057 8
      vertex 1.55885 -9.9 8
      vertex 3.2476 -10.875 8
    endloop
  endfacet
  facet normal 0 0 1
    outer loop
      vertex 1.55885 -8.1 8
      vertex 1.8 -9 8
      vertex 3.75 -9 8
    endloop
  endfacet
  facet normal 0 0 1
    outer loop
      vertex 3.2476 -10.875 8
      vertex 0.9 -10.5588 8
      vertex 2.65165 -11.6517 8
    endloop
  endfacet
  facet normal 0 0 1
    outer loop
      vertex 2.65165 -11.6517 8
      vertex 0 -10.8 8
      vertex 1.875 -12.2476 8
    endloop
  endfacet
  facet normal 0 0 1
    outer loop
      vertex 1.875 -12.2476 8
      vertex -0.9 -10.5588 8
      vertex 0.970571 -12.6222 8
    endloop
  endfacet
  facet normal 0 0 1
    outer loop
      vertex -1.55885 -9.9 8
      vertex -1.8 -9 8
      vertex -3.62222 -8.02943 8
    endloop
  endfacet
  facet normal 0 0 1
    outer loop
      vertex 0.9 -10.5588 8
      vertex 0 -10.8 8
      vertex 2.65165 -11.6517 8
    endloop
  endfacet
  facet normal 0 0 1
    outer loop
      vertex -1.8 -9 8
      vertex -1.55885 -8.1 8
      vertex -3.62222 -8.02943 8
    endloop
  endfacet
  facet normal -0.923879 -0.382684 0
    outer loop
      vertex 3.3819 -7.44923 8
      vertex 3.2476 -7.125 8.3989
      vertex 3.2476 -7.125 8
    endloop
  endfacet
  facet normal -1.40052e-16 -0.775996 0.630738
    outer loop
      vertex 7.5 -6.80173 8.79662
      vertex 2.99954 -6.80173 8.79662
      vertex 3.2476 -7.125 8.3989
    endloop
  endfacet
  facet normal -1.40052e-16 -0.775996 0.630738
    outer loop
      vertex 3.3819 -7.44923 8
      vertex 7.5 -6.80173 8.79662
      vertex 3.2476 -7.125 8.3989
    endloop
  endfacet
  facet normal -1.40052e-16 -0.775996 0.630738
    outer loop
      vertex 3.3819 -7.44923 8
      vertex 7.5 -7.44923 8
      vertex 7.5 -6.80173 8.79662
    endloop
  endfacet
  facet normal -0.793353 0.608762 0
    outer loop
      vertex 2.99954 6.80173 8.79662
      vertex 3.2476 7.125 8.3989
      vertex 2.65165 6.34835 9.25314
    endloop
  endfacet
  facet normal -0.793353 0.608762 0
    outer loop
      vertex 2.65165 6.34835 9.25314
      vertex 3.2476 7.125 8.3989
      vertex 3.2476 7.125 8
    endloop
  endfacet
  facet normal -0.793353 0.608762 0
    outer loop
      vertex 2.65165 6.34835 9.25314
      vertex 3.2476 7.125 8
      vertex 2.65165 6.34835 8
    endloop
  endfacet
  facet normal -0.793353 -0.608762 0
    outer loop
      vertex 3.2476 -7.125 8.3989
      vertex 2.99954 -6.80173 8.79662
      vertex 3.2476 -7.125 8
    endloop
  endfacet
  facet normal -0.793353 -0.608762 0
    outer loop
      vertex 3.2476 -7.125 8
      vertex 2.99954 -6.80173 8.79662
      vertex 2.65165 -6.34835 9.25314
    endloop
  endfacet
  facet normal -0.793353 -0.608762 0
    outer loop
      vertex 3.2476 -7.125 8
      vertex 2.65165 -6.34835 9.25314
      vertex 2.65165 -6.34835 8
    endloop
  endfacet
endsolid OpenSCAD_Model
